<?xml version="1.0" standalone="no"?>
<!DOCTYPE svg PUBLIC "-//W3C//DTD SVG 1.1//EN" "http://www.w3.org/Graphics/SVG/1.1/DTD/svg11.dtd" >
<svg xmlns="http://www.w3.org/2000/svg" xmlns:xlink="http://www.w3.org/1999/xlink" version="1.1">
<metadata></metadata>
<defs>
<font id="geogrotesque_regularregular" horiz-adv-x="1073" >
<font-face units-per-em="2048" ascent="1536" descent="-512" />
<missing-glyph horiz-adv-x="458" />
<glyph unicode="&#xfb01;" horiz-adv-x="1120" d="M57 922v49q0 27 29 30l111 7h16v159q0 265 383 265h295q31 0 31 -31v-60q0 -30 -31 -30h-295q-130 0 -185 -40.5t-55 -117.5v-145h555q31 0 31 -29v-948q0 -31 -29 -31h-84q-28 0 -28 31v860h-445v-860q0 -31 -30 -31h-82q-31 0 -31 31v860h-127q-29 0 -29 31z" />
<glyph unicode="&#xfb02;" horiz-adv-x="1120" d="M57 922v49q0 27 29 30l111 7h16v159q0 265 383 265h315q31 0 31 -31v-1370q0 -31 -29 -31h-84q-28 0 -28 31v1280h-205q-130 0 -185 -40.5t-55 -117.5v-145h224q30 0 30 -29v-57q0 -31 -30 -31h-224v-860q0 -31 -30 -31h-82q-31 0 -31 31v860h-127q-29 0 -29 31z" />
<glyph horiz-adv-x="0" />
<glyph horiz-adv-x="682" />
<glyph unicode=" "  horiz-adv-x="458" />
<glyph unicode="&#x09;" horiz-adv-x="458" />
<glyph unicode="&#xa0;" horiz-adv-x="458" />
<glyph unicode="!" horiz-adv-x="520" d="M186 31v159q0 31 31 31h86q29 0 29 -31v-159q0 -31 -29 -31h-86q-17 0 -24 7t-7 24zM186 799v563q0 31 29 31h90q29 0 29 -31v-563l-15 -437q0 -30 -28 -30h-62q-28 0 -28 30z" />
<glyph unicode="&#x22;" horiz-adv-x="751" d="M162 1362q0 31 31 31h81q32 0 29 -31l-12 -350q0 -31 -29 -31h-57q-17 0 -24 7t-7 24zM446 1362q0 31 31 31h82q31 0 31 -31l-12 -350q0 -17 -7 -24t-24 -7h-58q-15 0 -21.5 7t-6.5 24z" />
<glyph unicode="#" horiz-adv-x="1337" d="M170 479v45q0 29 29 29h168l61 223h-143q-31 0 -31 31v47q0 29 31 29h174l55 196q10 31 37 31h61q31 0 23 -31l-55 -196h311l55 196q10 31 37 31h61q31 0 23 -31l-55 -196h125q30 0 30 -29v-47q0 -31 -30 -31h-156l-61 -223h133q28 0 28 -29v-45q0 -30 -28 -30h-164 l-53 -193q-10 -33 -35 -33h-64q-32 0 -22 33l55 193h-313l-54 -193q-10 -33 -36 -33h-62q-32 0 -22 33l53 193h-137q-29 0 -29 30zM485 553h314l63 223h-313z" />
<glyph unicode="$" horiz-adv-x="1083" d="M168 403v56q0 28 29 28h75q27 0 27 -28v-49q0 -62 61 -95.5t179 -33.5q116 0 178.5 33.5t62.5 95.5v75q0 43 -31.5 69.5t-89.5 45.5l-315 105q-61 20 -109.5 73.5t-48.5 124.5v80q0 93 70 156.5t221 74.5v148q0 31 31 31h84q29 0 29 -31v-150q141 -14 208.5 -77 t67.5 -152v-59q0 -27 -29 -27h-75q-27 0 -27 27v59q0 127 -227 127q-224 0 -224 -127v-53q0 -43 32.5 -72.5t72.5 -40.5l315 -102q81 -28 128.5 -77t47.5 -118v-117q0 -89 -72.5 -151t-217.5 -76v-145q0 -31 -29 -31h-84q-31 0 -31 31v143q-155 10 -232 73.5t-77 155.5z" />
<glyph unicode="%" horiz-adv-x="1589" d="M170 989v223q0 195 276 195q277 0 277 -195v-223q0 -194 -277 -194q-276 0 -276 194zM289 993q0 -100 157 -100q158 0 158 100v215q0 101 -158 101q-157 0 -157 -101v-215zM414 11q-4 11 2 20l622 1331q16 31 43 31h70q14 0 18.5 -9.5t-2.5 -21.5l-620 -1331 q-19 -31 -43 -31h-74q-12 0 -16 11zM866 176v223q0 195 279 195q276 0 276 -195v-223q0 -194 -276 -194q-279 0 -279 194zM987 182q0 -102 158 -102q155 0 155 102v213q0 101 -155 101q-158 0 -158 -101v-213z" />
<glyph unicode="&#x26;" horiz-adv-x="1376" d="M176 276v226q0 96 41 153.5t150 83.5q-99 25 -138 80.5t-39 147.5v149q0 66 18.5 116t62.5 91.5t125.5 63.5t199.5 22t200.5 -22.5t126.5 -65t62.5 -93t18.5 -116.5v-45q0 -29 -31 -29h-84q-29 0 -29 29v27q0 96 -58.5 145t-205.5 49t-204.5 -49t-57.5 -145v-107 q0 -98 57 -144t211 -46h660q30 0 30 -31v-61q0 -29 -30 -29h-154v-395q0 -64 -24.5 -116t-77 -93.5t-145.5 -64.5t-220 -23t-219.5 22t-145 63t-76.5 92t-24 115zM319 299q0 -195 324 -195q165 0 244.5 51t79.5 144v377h-379q-154 0 -211.5 -46.5t-57.5 -144.5v-186z" />
<glyph unicode="'" horiz-adv-x="464" d="M162 1362q0 31 31 31h81q32 0 29 -31l-12 -350q0 -31 -29 -31h-57q-17 0 -24 7t-7 24z" />
<glyph unicode="(" horiz-adv-x="724" d="M176 -182v1368q0 264 383 264h12q31 0 31 -31v-59q0 -31 -31 -31h-12q-129 0 -182 -40.5t-53 -117.5v-1339q0 -77 53 -117.5t182 -40.5h12q31 0 31 -30v-60q0 -30 -31 -30h-12q-383 0 -383 264z" />
<glyph unicode=")" horiz-adv-x="724" d="M123 -356q0 17 7 23.5t24 6.5h10q130 0 183.5 40.5t53.5 117.5v1339q0 77 -53.5 117.5t-183.5 40.5h-10q-17 0 -24 7t-7 24v59q0 17 7 24t24 7h10q383 0 383 -264v-1368q0 -264 -383 -264h-10q-17 0 -24 6.5t-7 23.5v60z" />
<glyph unicode="*" horiz-adv-x="1044" d="M193 913q-19 29 12 41l229 125l-229 129q-29 14 -12 39l20 41q15 27 41 10l229 -147l-10 272q-3 31 29 31h45q28 0 28 -31l-12 -272l228 147q28 17 43 -10l18 -41q18 -29 -12 -39l-230 -129l230 -125q29 -10 12 -41l-18 -39q-15 -27 -43 -10l-226 146l10 -262 q0 -17 -6.5 -24t-21.5 -7h-45q-32 0 -29 31l8 264l-227 -148q-26 -17 -41 13z" />
<glyph unicode="+" horiz-adv-x="1185" d="M162 664v61q0 17 7 24t24 7h337v338q0 32 29 32h62q28 0 28 -32v-338h344q31 0 31 -31v-61q0 -31 -31 -31h-344v-340q0 -29 -28 -29h-62q-29 0 -29 29v340h-337q-31 0 -31 31z" />
<glyph unicode="," horiz-adv-x="552" d="M135 -113q-12 29 19 39q57 25 79.5 58t22.5 82v124q0 31 29 31h86q28 0 28 -31v-131q0 -186 -204 -249q-29 -6 -39 18z" />
<glyph unicode="-" horiz-adv-x="933" d="M162 563v60q0 28 31 28h548q31 0 31 -28v-60q0 -31 -31 -31h-548q-31 0 -31 31z" />
<glyph unicode="." horiz-adv-x="452" d="M154 31v159q0 31 30 31h86q29 0 29 -31v-159q0 -31 -29 -31h-86q-17 0 -23.5 7t-6.5 24z" />
<glyph unicode="/" horiz-adv-x="755" d="M82 -272l442 1673q6 31 35 31h92q32 0 23 -31l-441 -1673q-5 -16 -12.5 -23.5t-23.5 -7.5h-93q-14 0 -20 9t-2 22z" />
<glyph unicode="0" horiz-adv-x="1110" d="M133 283v827q0 65 20 116.5t66 94t131 65.5t205 23q424 0 424 -299v-827q0 -299 -424 -299q-120 0 -205 23t-131 65.5t-66 94t-20 116.5zM279 305q0 -96 61 -146t215 -50q153 0 214.5 50t61.5 146v782q0 96 -61.5 146.5t-214.5 50.5q-154 0 -215 -50t-61 -147v-782z" />
<glyph unicode="1" horiz-adv-x="1110" d="M150 31v65q0 29 30 29h328v1114l-326 -76q-14 -3 -22 3.5t-8 21.5v69q0 28 30 35l443 107q28 5 28 -27v-1247h324q31 0 31 -29v-65q0 -31 -31 -31h-797q-30 0 -30 31z" />
<glyph unicode="2" horiz-adv-x="1110" d="M150 993v117q0 52 11 94.5t39.5 81.5t74 65.5t119 42t169.5 15.5q120 0 204.5 -23t130 -66t65 -93.5t20.5 -116.5v-227q0 -179 -184 -252l-348 -111q-68 -26 -93 -46q-43 -35 -43 -89v-260h643q31 0 31 -29v-65q0 -31 -31 -31h-759q-29 0 -29 31v395q0 36 13 65.5t30 48 t43 34t43 22.5t39 14l381 127q18 6 35.5 15t38 25.5t33 43.5t12.5 60v206q0 98 -60.5 148.5t-214.5 50.5q-151 0 -211.5 -50.5t-60.5 -148.5v-94q0 -32 -29 -32h-82q-17 0 -23.5 7t-6.5 25z" />
<glyph unicode="3" horiz-adv-x="1110" d="M127 281v45q0 28 29 28h84q28 0 28 -28v-27q0 -95 63.5 -145t213.5 -50q149 0 211.5 50t62.5 145v186q0 48 -11.5 81.5t-41 59t-82.5 38t-133 12.5h-182q-31 0 -31 29v61q0 17 7 24t24 7h170q153 0 209.5 46t56.5 144v107q0 96 -57.5 145t-204.5 49t-205.5 -49 t-58.5 -145v-27q0 -29 -29 -29h-84q-29 0 -29 29v45q0 66 18.5 116.5t62.5 93t126.5 65t200.5 22.5t199 -22t124.5 -63.5t61.5 -91.5t18 -116v-149q0 -93 -38 -148t-138 -80q109 -26 150 -83.5t41 -153.5v-226q0 -65 -20 -115.5t-65.5 -91.5t-129 -63t-201.5 -22 q-420 0 -420 297z" />
<glyph unicode="4" horiz-adv-x="1110" d="M96 471v66q0 14 4 18l289 807q6 31 37 31h86q30 0 23 -31l-287 -797h545v797q0 31 30 31h88q29 0 29 -31v-1331q0 -31 -29 -31h-88q-30 0 -30 31v409h-666q-31 0 -31 31z" />
<glyph unicode="5" horiz-adv-x="1110" d="M152 279v45q0 17 6.5 23.5t23.5 6.5h82q31 0 31 -30v-25q0 -99 55.5 -147t206.5 -48q103 0 161.5 24.5t78.5 65t20 105.5v258q0 172 -266 172h-336q-29 0 -29 31v602q0 31 29 31h684q31 0 31 -31v-64q0 -30 -31 -30h-567v-418h221q204 0 308 -73t104 -202v-296 q0 -66 -18 -116.5t-61.5 -93t-126 -65t-202.5 -22.5q-119 0 -201 22.5t-125 65t-61 93t-18 116.5z" />
<glyph unicode="6" horiz-adv-x="1110" d="M145 283v837q0 289 410 289q406 0 406 -289v-37q0 -30 -31 -30h-82q-17 0 -23 7t-6 23v19q0 85 -58 135.5t-206 50.5q-77 0 -131 -14.5t-82.5 -41t-40.5 -58t-12 -72.5v-375q72 102 286 102q400 0 400 -299v-247q0 -52 -11 -94.5t-40 -81.5t-75 -65.5t-119.5 -42 t-170.5 -15.5q-96 0 -169.5 15.5t-119 42t-74.5 65.5t-40 81.5t-11 94.5zM289 301q0 -97 59 -147t211 -50q79 0 133.5 13.5t84 40.5t42 61.5t12.5 81.5v211q0 47 -12.5 81.5t-42 61.5t-84 40.5t-133.5 13.5q-145 0 -206 -46t-64 -135v-227z" />
<glyph unicode="7" horiz-adv-x="1110" d="M106 1298v64q0 31 33 31h840q29 0 29 -31v-62q0 -16 -7 -26l-524 -1243q-15 -31 -37 -31h-100q-38 0 -23 31l525 1237h-703q-18 0 -25.5 6.5t-7.5 23.5z" />
<glyph unicode="8" horiz-adv-x="1110" d="M141 283v221q0 92 45.5 151.5t155.5 85.5q-103 25 -143.5 83.5t-40.5 152.5v133q0 53 9 94.5t35 81t69.5 65.5t115 42t168.5 16t168.5 -16t115 -42t69.5 -65.5t35 -81t9 -94.5v-133q0 -94 -41 -152.5t-145 -83.5q110 -26 156.5 -85.5t46.5 -151.5v-221 q0 -66 -18.5 -116.5t-63 -93.5t-128.5 -66t-204 -23t-204 23t-128.5 66t-63 93.5t-18.5 116.5zM287 301q0 -98 57.5 -147.5t210.5 -49.5q152 0 211 50t59 147v182q0 48 -12 82.5t-42 61t-83.5 40t-132.5 13.5q-80 0 -133.5 -13.5t-82.5 -40.5t-40.5 -61t-11.5 -82v-182z M301 997q0 -49 10 -82.5t36.5 -61t78 -41t129.5 -13.5t129.5 13.5t78.5 41t37.5 61t10.5 82.5v95q0 48 -10.5 81.5t-37.5 60.5t-78.5 40.5t-129.5 13.5t-129.5 -13.5t-78 -40.5t-36.5 -60.5t-10 -81.5v-95z" />
<glyph unicode="9" horiz-adv-x="1110" d="M135 862v248q0 66 18.5 116.5t63.5 93.5t129 66t205 23q120 0 204 -23t128.5 -66t63 -93.5t18.5 -116.5v-838q0 -288 -410 -288q-403 0 -403 288v37q0 31 28 31h84q29 0 29 -31v-18q0 -40 11 -71t38.5 -58.5t81.5 -42.5t131 -15q78 0 131.5 14.5t81.5 41.5t39.5 58.5 t11.5 72.5v373q-71 -101 -287 -101q-397 0 -397 299zM279 881q0 -47 12.5 -81.5t42 -61.5t84 -40.5t133.5 -13.5q100 0 160 23.5t83.5 62.5t24.5 100v222q0 47 -12 81t-41 61t-82.5 40.5t-132.5 13.5t-133.5 -13.5t-84 -40.5t-42 -61t-12.5 -81v-211z" />
<glyph unicode=":" horiz-adv-x="452" d="M154 31v159q0 31 30 31h86q29 0 29 -31v-159q0 -31 -29 -31h-86q-30 0 -30 31zM154 819v162q0 31 30 31h86q29 0 29 -31v-162q0 -28 -29 -28h-86q-30 0 -30 28z" />
<glyph unicode=";" horiz-adv-x="552" d="M135 -113q-12 29 19 39q58 25 80 57.5t22 82.5v124q0 31 31 31h84q28 0 28 -31v-131q0 -186 -204 -249q-29 -6 -39 18zM256 819v162q0 31 31 31h84q28 0 28 -31v-162q0 -28 -28 -28h-84q-17 0 -24 6.5t-7 21.5z" />
<glyph unicode="&#x3c;" horiz-adv-x="1103" d="M162 649v94q0 21 28 35l723 326q13 6 21 -1.5t8 -25.5v-84q0 -24 -29 -35l-610 -262l610 -262q10 -4 15 -7t9.5 -10t4.5 -18v-84q0 -36 -29 -26l-723 325q-21 11 -25 19q-3 7 -3 16z" />
<glyph unicode="=" horiz-adv-x="1204" d="M162 465v61q0 29 31 29h819q17 0 23.5 -7t6.5 -22v-61q0 -15 -6.5 -22t-23.5 -7h-819q-31 0 -31 29zM162 831v62q0 29 31 29h819q17 0 23.5 -7t6.5 -22v-62q0 -17 -6.5 -23.5t-23.5 -6.5h-819q-31 0 -31 30z" />
<glyph unicode="&#x3e;" horiz-adv-x="1103" d="M162 315v84q0 16 7.5 23t23.5 12l608 262l-608 262q-31 10 -31 35v84q0 18 8 25.5t23 1.5l720 -326q29 -14 29 -35v-94q0 -4 -0.5 -7.5t-1.5 -6t-3 -5.5t-3 -4t-5 -3.5t-4.5 -3t-5.5 -3t-6 -2.5l-720 -325q-31 -9 -31 26z" />
<glyph unicode="?" horiz-adv-x="1161" d="M154 993v117q0 299 426 299q424 0 428 -299v-156q0 -182 -170 -266l-109 -53q-102 -50 -102 -146v-127q0 -30 -29 -30h-88q-29 0 -29 30v160q0 43 13 78t37 58.5t42 35.5t43 25l144 74q102 56 102 157v137q0 97 -64.5 148t-217.5 51q-155 0 -220 -51t-65 -148v-94 q0 -32 -29 -32h-82q-17 0 -23.5 7t-6.5 25zM481 31v159q0 31 29 31h88q29 0 29 -31v-159q0 -31 -29 -31h-88q-29 0 -29 31z" />
<glyph unicode="@" horiz-adv-x="1744" d="M186 113v807q0 62 16 111t61.5 96.5t120 79.5t198.5 51.5t290 19.5t290.5 -19.5t199.5 -51.5t120.5 -79.5t62 -97t16.5 -110.5v-582q0 -270 -267 -270q-182 0 -229 131q-160 -131 -330 -131q-264 0 -237 262l34 346q23 262 277 262q145 0 291 -115l10 70q3 16 10.5 22.5 t24.5 6.5h72q27 0 24 -29l-53 -531q-10 -85 17.5 -135.5t97.5 -50.5q66 0 92 46.5t26 131.5v559q0 59 -25 101.5t-84.5 77t-169.5 52t-270 17.5q-159 0 -268.5 -17.5t-169.5 -52t-85 -77.5t-25 -101v-796q0 -58 25 -100.5t84.5 -77t169.5 -52.5t269 -18h377q31 0 31 -29v-59 q0 -31 -31 -31h-377q-166 0 -290 20t-198.5 52.5t-120 81t-61.5 98t-16 111.5zM637 350q-8 -67 28.5 -108t122.5 -41q114 0 256 96v31l41 379q-24 20 -40 32t-48.5 32t-70.5 30t-80 10q-90 0 -129.5 -43.5t-48.5 -116.5z" />
<glyph unicode="A" horiz-adv-x="1077" d="M49 31l408 1331q9 31 39 31h88q28 0 37 -31l409 -1331q9 -31 -24 -31h-88q-28 0 -37 31l-113 364h-469l-111 -364q-6 -31 -34 -31h-82q-16 0 -22.5 8t-0.5 23zM334 512h403l-149 479q-10 35 -29 125t-22 127q-25 -145 -52 -248z" />
<glyph unicode="B" horiz-adv-x="1191" d="M186 31v1331q0 31 29 31h352q443 0 443 -287v-135q0 -180 -185 -242q242 -54 242 -252v-182q0 -295 -444 -295h-408q-29 0 -29 31zM330 121h293q299 0 299 196v152q0 190 -299 190h-293v-538zM330 774h258q143 0 210.5 52.5t67.5 146.5v110q0 94 -70.5 141.5t-228.5 47.5 h-237v-498z" />
<glyph unicode="C" horiz-adv-x="1130" d="M162 283v827q0 299 432 299t432 -299v-104q0 -33 -29 -33h-82q-17 0 -23.5 7.5t-6.5 25.5v81q0 95 -67 146t-222 51t-222 -51t-67 -146v-782q0 -95 67 -145.5t222 -50.5t222 50.5t67 145.5v109q0 30 30 30h82q29 0 29 -30v-131q0 -299 -432 -299t-432 299z" />
<glyph unicode="D" horiz-adv-x="1232" d="M186 31v1331q0 31 27 31h414q123 0 211.5 -23t138 -65.5t72 -94t22.5 -116.5v-795q0 -65 -22.5 -116.5t-72 -94t-138 -65.5t-211.5 -23h-416q-25 3 -25 31zM330 125h297q299 0 299 197v749q0 197 -299 197h-297v-1143z" />
<glyph unicode="E" d="M186 31v1331q0 31 29 31h698q31 0 31 -31v-64q0 -30 -31 -30h-583v-477h547q17 0 23.5 -7t6.5 -24v-60q0 -17 -6.5 -23.5t-23.5 -6.5h-547v-545h608q31 0 31 -29v-65q0 -31 -31 -31h-725q-27 0 -27 31z" />
<glyph unicode="F" horiz-adv-x="1081" d="M186 31v1331q0 31 29 31h752q30 0 30 -31v-64q0 -30 -30 -30h-637v-480h600q28 0 28 -30v-66q0 -30 -28 -30h-600v-631q0 -31 -29 -31h-86q-29 0 -29 31z" />
<glyph unicode="G" horiz-adv-x="1161" d="M162 283v827q0 299 432 299t432 -299v-98q0 -29 -29 -29h-82q-17 0 -23.5 7t-6.5 22v75q0 95 -67 146t-222 51t-222 -51t-67 -146v-782q0 -95 67 -145.5t222 -50.5q154 0 221.5 50t67.5 144v242h-275q-28 0 -28 30v66q0 29 28 29h385q31 0 31 -29v-358q0 -299 -432 -299 t-432 299z" />
<glyph unicode="H" horiz-adv-x="1255" d="M186 31v1331q0 31 29 31h86q29 0 29 -31v-563h596v563q0 31 28 31h88q29 0 29 -31v-1331q0 -31 -29 -31h-88q-28 0 -28 31v645h-596v-645q0 -31 -29 -31h-86q-29 0 -29 31z" />
<glyph unicode="I" horiz-adv-x="516" d="M186 31v1331q0 31 29 31h86q29 0 29 -31v-1331q0 -31 -29 -31h-86q-29 0 -29 31z" />
<glyph unicode="J" horiz-adv-x="1015" d="M61 283v92q0 33 31 33h84q29 0 29 -33v-70q0 -96 55 -146t193 -50t191.5 49.5t53.5 146.5v1057q0 31 29 31h86q31 0 31 -31v-1079q0 -66 -18 -116.5t-60 -93.5t-121 -66t-192 -23q-112 0 -191 23t-121.5 65.5t-61 94t-18.5 116.5z" />
<glyph unicode="K" horiz-adv-x="1124" d="M184 31v1331q0 31 31 31h86q29 0 29 -31v-610h63l473 612q29 29 52 29h94q15 0 19 -8.5t-5 -22.5l-510 -655l567 -676q8 -12 3.5 -21.5t-17.5 -9.5h-115q-24 0 -47 31l-514 610h-63v-610q0 -31 -29 -31h-86q-31 0 -31 31z" />
<glyph unicode="L" horiz-adv-x="1003" d="M186 31v1331q0 31 29 31h88q29 0 29 -31v-1237h573q29 0 29 -29v-65q0 -31 -29 -31h-694q-25 3 -25 31z" />
<glyph unicode="M" horiz-adv-x="1486" d="M184 31v1331q0 31 31 31h78q19 0 26 -17l388 -905l36 -106l39 104l379 907q6 17 29 17h82q31 0 31 -31v-1331q0 -31 -31 -31h-82q-31 0 -31 31v1056q-15 -64 -41 -126l-297 -717q-12 -31 -41 -31h-75q-27 0 -39 31l-310 735q-14 32 -34 106v-1054q0 -31 -29 -31h-78 q-31 0 -31 31z" />
<glyph unicode="N" horiz-adv-x="1255" d="M184 31v1331q0 31 31 31h78q17 0 24 -13l555 -977l62 -122v1081q0 31 29 31h77q29 0 29 -31v-1331q0 -31 -29 -31h-77q-23 0 -29 14l-543 963q-28 41 -69 135v-1081q0 -31 -29 -31h-78q-31 0 -31 31z" />
<glyph unicode="O" horiz-adv-x="1210" d="M162 283v827q0 65 22.5 116.5t72 94t137.5 65.5t210 23q123 0 212 -23t138.5 -65.5t72 -94t22.5 -116.5v-827q0 -65 -22.5 -116.5t-72 -94t-138.5 -65.5t-212 -23q-122 0 -210 23t-137.5 65.5t-72 94t-22.5 116.5zM307 305q0 -196 297 -196q299 0 299 196v782 q0 197 -299 197q-297 0 -297 -197v-782z" />
<glyph unicode="P" horiz-adv-x="1159" d="M186 31v1331q0 31 27 31h405q123 0 212 -23t138.5 -65.5t72 -94t22.5 -116.5v-256q0 -65 -22.5 -117t-72 -94.5t-138.5 -66t-212 -23.5h-288v-506q0 -31 -29 -31h-86q-29 0 -29 31zM330 662h288q300 0 300 198v211q0 197 -300 197h-288v-606z" />
<glyph unicode="Q" horiz-adv-x="1208" d="M162 283v827q0 65 22.5 116.5t72 94t137.5 65.5t210 23q123 0 212 -23t138.5 -65.5t72 -94t22.5 -116.5v-827q0 -113 -72 -190t-234 -99l275 -252q24 -21 4 -43l-45 -47q-18 -22 -41 -2l-363 334q-219 6 -315 86.5t-96 212.5zM307 303q0 -199 297 -199q299 0 299 199v787 q0 198 -299 198q-297 0 -297 -198v-787z" />
<glyph unicode="R" horiz-adv-x="1208" d="M186 31v1331q0 31 27 31h405q123 0 212 -23t138.5 -65.5t72 -94t22.5 -116.5v-230q0 -223 -254 -278l266 -555q6 -13 -2.5 -22t-25.5 -9h-86q-5 0 -8.5 0.5t-7 2.5t-5.5 3.5t-4.5 5t-3.5 5t-4 7t-4 7.5l-254 536h-52h-288v-536q0 -31 -29 -31h-86q-29 0 -29 31zM330 690 h288q300 0 300 199v182q0 197 -300 197h-288v-578z" />
<glyph unicode="S" horiz-adv-x="1157" d="M145 283v112q0 31 29 31h84q29 0 29 -31v-94q0 -195 295 -195q157 0 227 50.5t70 144.5v127q0 31 -10.5 57t-26 43.5t-40 33.5t-44.5 25.5t-49 20.5l-367 142q-73 28 -125.5 92.5t-52.5 152.5v115q0 299 422 299q118 0 203.5 -23t132.5 -65.5t68.5 -94t21.5 -116.5v-96 q0 -31 -31 -31h-84q-29 0 -29 31v78q0 95 -64 144.5t-216 49.5q-154 0 -218.5 -49.5t-64.5 -144.5v-62q0 -113 119 -160l385 -145q213 -83 213 -266v-176q0 -65 -22.5 -116.5t-71.5 -94t-136.5 -65.5t-207.5 -23t-207.5 23t-137 65.5t-72 94.5t-22.5 116z" />
<glyph unicode="T" horiz-adv-x="989" d="M37 1298v64q0 17 7 24t24 7h852q30 0 30 -31v-64q0 -30 -30 -30h-353v-1237q0 -31 -28 -31h-88q-31 0 -31 31v1237h-352q-17 0 -24 6.5t-7 23.5z" />
<glyph unicode="U" horiz-adv-x="1232" d="M174 283v1079q0 31 29 31h88q28 0 28 -31v-1057q0 -196 295 -196q301 0 301 196v1057q0 31 29 31h86q29 0 29 -31v-1079q0 -65 -22.5 -116.5t-72 -94t-138.5 -65.5t-212 -23q-122 0 -210 23t-137 65.5t-71 94t-22 116.5z" />
<glyph unicode="V" horiz-adv-x="1077" d="M49 1362q-6 15 0.5 23t22.5 8h94q29 0 35 -31l293 -961q27 -91 47 -217q4 32 22 107.5t27 105.5l295 965q6 31 35 31h86q33 0 24 -31l-409 -1331q-9 -31 -37 -31h-88q-30 0 -39 31z" />
<glyph unicode="W" horiz-adv-x="1640" d="M47 1362q-6 31 25 31h88q29 0 35 -31l243 -963q4 -18 11 -48t13.5 -62t8.5 -39q1 10 33 149l246 963q5 16 12.5 23.5t23.5 7.5h82q29 0 35 -31l244 -963q28 -118 33 -161q2 34 32 161l246 963q9 31 37 31h76q31 0 22 -31l-338 -1331q-6 -31 -36 -31h-86q-28 0 -37 31 l-248 979q-24 94 -27 141q-6 -52 -28 -143l-248 -977q-6 -31 -39 -31h-86q-26 0 -35 31z" />
<glyph unicode="X" horiz-adv-x="1130" d="M82.5 11q-3.5 11 3.5 24l393 676l-383 649q-8 12 -4.5 22.5t17.5 10.5h102q26 0 45 -31l315 -531l301 531q17 31 43 31h95q15 0 19 -8.5t-5 -22.5l-381 -655l399 -676q8 -12 4 -21.5t-20 -9.5h-100q-30 0 -45 31l-326 549l-315 -549q-19 -31 -43 -31h-97q-14 0 -17.5 11z " />
<glyph unicode="Y" horiz-adv-x="1058" d="M41.5 1385q5.5 8 21.5 8h99q23 0 37 -31l301 -594q17 -34 30 -78q3 9 16.5 41.5t14.5 36.5l311 594q16 31 37 31h86q16 0 22 -8t-1 -23l-412 -795v-536q0 -31 -31 -31h-86q-30 0 -30 31v520l-414 811q-7 15 -1.5 23z" />
<glyph unicode="Z" horiz-adv-x="1030" d="M104 31v65q0 14 5 21l628 1151h-567q-31 0 -31 30v64q0 31 31 31h715q17 0 23.5 -7t6.5 -24v-64q0 -13 -6 -22l-630 -1151h639q30 0 30 -29v-65q0 -31 -30 -31h-785q-29 0 -29 31z" />
<glyph unicode="[" horiz-adv-x="749" d="M176 -401v1802q0 31 31 31h383q15 0 21.5 -7t6.5 -24v-64q0 -17 -6.5 -23.5t-21.5 -6.5h-266v-1614h266q15 0 21.5 -7t6.5 -24v-63q0 -17 -6.5 -24t-21.5 -7h-383q-31 0 -31 31z" />
<glyph unicode="\" horiz-adv-x="755" d="M82 1401q-9 31 22 31h93q16 0 23.5 -7.5t12.5 -23.5l441 -1673q4 -13 -2.5 -22t-20.5 -9h-92q-29 0 -35 31z" />
<glyph unicode="]" horiz-adv-x="749" d="M131 -338q0 17 7 24t24 7h264v1614h-264q-17 0 -24 6.5t-7 23.5v64q0 17 7 24t24 7h381q15 0 21.5 -7t6.5 -24v-1802q0 -17 -6.5 -24t-21.5 -7h-381q-17 0 -24 7t-7 24v63z" />
<glyph unicode="^" horiz-adv-x="1140" d="M164 643l325 721q1 1 2 3q11 22 23 25l8 1h92q14 0 21 -7t14 -22l326 -721q6 -15 -1.5 -24t-23.5 -9h-84q-22 0 -32 33l-267 606l-262 -606q-10 -33 -33 -33h-82q-15 0 -22.5 9t-3.5 24z" />
<glyph unicode="_" horiz-adv-x="886" d="M47 -203q0 29 29 29h735q31 0 31 -29v-61q0 -29 -31 -29h-735q-29 0 -29 29v61z" />
<glyph unicode="`" horiz-adv-x="677" d="M189 1440.5q4 9.5 20 9.5h88q27 0 41 -29l135 -229q15 -29 -14 -29h-66q-25 0 -39 19l-161 237q-8 12 -4 21.5z" />
<glyph unicode="a" horiz-adv-x="1034" d="M127 225v103q0 105 69 173t197 68h352v185q0 76 -51.5 116.5t-179.5 40.5q-129 0 -181 -39t-52 -114v-25q0 -33 -31 -33h-74q-29 0 -29 33v35q0 260 369 260q200 0 284.5 -68t84.5 -192v-737q0 -31 -29 -31h-74q-16 0 -21.5 7t-8.5 24l-4 73q-151 -120 -338 -120 q-137 0 -210 68t-73 173zM264 244q0 -142 178 -142q157 0 303 115v240h-325q-156 0 -156 -148v-65z" />
<glyph unicode="b" d="M162 31v1370q0 31 31 31h81q29 0 29 -31v-494q159 121 348 121q142 0 212.5 -70t70.5 -192v-520q0 -122 -70.5 -192t-212.5 -70q-202 0 -350 122l-4 -75q-2 -16 -8.5 -23.5t-22.5 -7.5h-73q-31 0 -31 31zM303 227q153 -114 309 -114q94 0 137.5 42t43.5 111v479 q0 69 -43.5 111.5t-137.5 42.5q-160 0 -309 -117v-555z" />
<glyph unicode="c" horiz-adv-x="980" d="M139 248v516q0 127 86.5 195.5t286.5 68.5t286.5 -68.5t86.5 -195.5v-39q0 -31 -31 -31h-76q-30 0 -30 31v31q0 76 -52.5 115.5t-181.5 39.5t-181 -39.5t-52 -115.5v-498q0 -78 52 -118t181 -40t181.5 40t52.5 118v45q0 17 6.5 24t23.5 7h76q17 0 24 -7t7 -24v-55 q0 -126 -87 -195t-288 -69q-200 0 -285.5 68.5t-85.5 195.5z" />
<glyph unicode="d" d="M139 246v520q0 122 71 192t214 70q182 0 346 -121v494q0 31 29 31h82q30 0 30 -31v-1370q0 -31 -30 -31h-74q-16 0 -22.5 7.5t-8.5 23.5l-4 75q-153 -122 -348 -122q-143 0 -214 70t-71 192zM281 266q0 -68 43.5 -110.5t136.5 -42.5q156 0 309 114v555q-149 117 -309 117 q-93 0 -136.5 -42.5t-43.5 -111.5v-479z" />
<glyph unicode="e" horiz-adv-x="1007" d="M139 248v516q0 127 87.5 195.5t289.5 68.5q200 0 285.5 -68.5t85.5 -195.5v-252q0 -29 -29 -29h-579v-227q0 -77 52 -117.5t185 -40.5t185.5 40.5t52.5 117.5v35q0 28 28 28h74q31 0 31 -28v-43q0 -127 -86.5 -195.5t-288.5 -68.5q-200 0 -286.5 68.5t-86.5 195.5z M279 592h475v164q0 157 -238 157q-130 0 -183.5 -41t-53.5 -116v-164z" />
<glyph unicode="f" horiz-adv-x="659" d="M57 922v49q0 27 29 30l111 7h16v176q0 262 383 262h12q31 0 31 -29v-61q0 -31 -31 -31h-12q-130 0 -185 -40.5t-55 -115.5v-161h224q30 0 30 -29v-57q0 -31 -30 -31h-224v-860q0 -31 -30 -31h-82q-31 0 -31 31v860h-127q-29 0 -29 31z" />
<glyph unicode="g" d="M139 246v520q0 122 71 192t214 70q196 0 348 -125l4 78q2 16 8.5 23.5t22.5 7.5h74q30 0 30 -31v-1139q0 -264 -383 -264h-278q-31 0 -31 29v61q0 29 31 29h278q242 0 242 158v247q-160 -118 -346 -118q-143 0 -214 70t-71 192zM281 266q0 -68 43.5 -110.5t136.5 -42.5 q156 0 309 114v555q-149 117 -309 117q-93 0 -136.5 -42.5t-43.5 -111.5v-479z" />
<glyph unicode="h" horiz-adv-x="1083" d="M162 31v1370q0 31 31 31h81q29 0 29 -31v-494q146 121 348 121q138 0 210.5 -69.5t72.5 -182.5v-745q0 -31 -29 -31h-82q-30 0 -30 31v714q0 156 -181 156q-163 0 -309 -115v-755q0 -31 -29 -31h-81q-31 0 -31 31z" />
<glyph unicode="i" horiz-adv-x="466" d="M162 31v950q0 31 31 31h81q29 0 29 -31v-950q0 -31 -29 -31h-81q-31 0 -31 31zM162 1210v191q0 31 31 31h81q29 0 29 -31v-191q0 -30 -29 -30h-81q-31 0 -31 30z" />
<glyph unicode="j" horiz-adv-x="464" d="M-123 -332q0 29 31 29h12q242 0 242 158v1126q0 16 6 23.5t22 7.5h82q31 0 31 -31v-1139q0 -264 -383 -264h-12q-31 0 -31 29v61zM162 1210v191q0 31 28 31h84q29 0 29 -31v-191q0 -30 -29 -30h-84q-28 0 -28 30z" />
<glyph unicode="k" horiz-adv-x="940" d="M162 31v1370q0 31 28 31h84q29 0 29 -31v-778h68l348 358q23 31 49 31h92q17 0 21 -9.5t-7 -21.5l-387 -408l435 -542q8 -12 4 -21.5t-19 -9.5h-92q-25 0 -49 31l-393 483h-70v-483q0 -31 -29 -31h-84q-28 0 -28 31z" />
<glyph unicode="l" horiz-adv-x="466" d="M162 31v1370q0 31 31 31h81q29 0 29 -31v-1370q0 -31 -29 -31h-81q-31 0 -31 31z" />
<glyph unicode="m" horiz-adv-x="1691" d="M162 31v950q0 31 31 31h73q16 0 22.5 -7.5t8.5 -23.5l2 -76q144 123 340 123q100 0 165.5 -37t94.5 -102q31 26 52.5 41.5t69 42.5t107.5 41t129 14q138 0 211.5 -69.5t73.5 -182.5v-745q0 -31 -31 -31h-81q-31 0 -31 31v714q0 156 -180 156q-174 0 -299 -119 q2 -10 2 -37v-714q0 -31 -29 -31h-82q-31 0 -31 31v714q0 156 -180 156q-163 0 -297 -115v-755q0 -31 -29 -31h-81q-31 0 -31 31z" />
<glyph unicode="n" horiz-adv-x="1083" d="M162 31v950q0 31 31 31h73q16 0 22.5 -7.5t8.5 -23.5l4 -78q57 49 145.5 87t204.5 38q138 0 210.5 -69.5t72.5 -182.5v-745q0 -31 -29 -31h-82q-30 0 -30 31v714q0 156 -181 156q-163 0 -309 -115v-755q0 -31 -29 -31h-81q-31 0 -31 31z" />
<glyph unicode="o" horiz-adv-x="1050" d="M139 248v516q0 264 385 264q387 0 387 -264v-516q0 -264 -387 -264q-385 0 -385 264zM281 258q0 -158 243 -158q246 0 246 158v496q0 76 -57.5 116.5t-188.5 40.5q-129 0 -186 -40.5t-57 -116.5v-496z" />
<glyph unicode="p" d="M162 -393v1374q0 31 31 31h73q16 0 22.5 -7.5t8.5 -23.5l4 -78q152 125 350 125q142 0 212.5 -70t70.5 -192v-520q0 -122 -70.5 -192t-212.5 -70q-193 0 -348 118v-495q0 -29 -29 -29h-81q-31 0 -31 29zM303 227q153 -114 309 -114q94 0 137.5 42t43.5 111v479 q0 69 -43.5 111.5t-137.5 42.5q-160 0 -309 -117v-555z" />
<glyph unicode="q" d="M139 246v520q0 122 71 192t214 70q191 0 348 -125l4 78q2 16 8.5 23.5t22.5 7.5h74q30 0 30 -31v-1374q0 -15 -6.5 -22t-23.5 -7h-82q-17 0 -23 6.5t-6 22.5v495q-160 -118 -346 -118q-143 0 -214 70t-71 192zM281 266q0 -68 43.5 -110.5t136.5 -42.5q156 0 309 114v555 q-149 117 -309 117q-93 0 -136.5 -42.5t-43.5 -111.5v-479z" />
<glyph unicode="r" horiz-adv-x="706" d="M162 31v950q0 31 31 31h73q16 0 22.5 -7.5t8.5 -23.5l6 -100q60 56 147 101.5t187 45.5q33 0 33 -31v-67q0 -28 -33 -31q-100 -3 -189 -46.5t-145 -90.5v-731q0 -31 -29 -31h-81q-31 0 -31 31z" />
<glyph unicode="s" horiz-adv-x="952" d="M113 215v55q0 29 28 29h76q27 0 27 -29v-49q0 -62 61 -95.5t178 -33.5t179.5 33.5t62.5 95.5v76q0 43 -31.5 69.5t-89.5 45.5l-315 104q-61 19 -109.5 73.5t-48.5 125.5v80q0 102 85 167.5t269 65.5q183 0 270 -66t87 -167v-60q0 -26 -29 -26h-76q-26 0 -26 26v60 q0 61 -57 94t-171 33q-223 0 -223 -127v-54q0 -43 32 -72t73 -40l315 -103q81 -28 128.5 -76.5t47.5 -117.5v-117q0 -100 -93.5 -165.5t-279.5 -65.5q-187 0 -278.5 65.5t-91.5 165.5z" />
<glyph unicode="t" horiz-adv-x="710" d="M53 922v49q0 27 29 30l106 7h17v217q0 30 31 30h83q29 0 29 -30v-217h230q30 0 30 -29v-57q0 -31 -30 -31h-230v-612q0 -77 54 -117.5t184 -40.5h35q30 0 30 -31v-59q0 -31 -30 -31h-54q-104 0 -175 17.5t-111.5 53t-58 82t-17.5 111.5v627h-123q-29 0 -29 31z" />
<glyph unicode="u" horiz-adv-x="1071" d="M150 233v748q0 31 28 31h84q29 0 29 -31v-715q0 -155 182 -155q159 0 295 112v758q0 31 29 31h84q28 0 28 -31v-950q0 -17 -6.5 -24t-21.5 -7h-76q-17 0 -23 6.5t-8 24.5l-4 73q-140 -120 -336 -120q-138 0 -211 68t-73 181z" />
<glyph unicode="v" horiz-adv-x="884" d="M37 981q-4 13 3.5 22t22.5 9h89q25 0 32 -31l230 -678q17 -62 28 -129q4 31 31 127l236 680q10 31 32 31h80q17 0 24.5 -8.5t2.5 -22.5l-326 -952q-5 -16 -12 -22.5t-21 -6.5h-94q-14 0 -20.5 6.5t-9.5 22.5z" />
<glyph unicode="w" horiz-adv-x="1341" d="M37 981q-3 14 4.5 22.5t24.5 8.5h81q26 0 33 -31l187 -713l16 -84q3 13 10 43.5t10 40.5l197 713q7 31 33 31h88q28 0 35 -31l184 -713l14 -61q13 51 17 61l203 713q7 31 34 31h70q15 0 22 -9t3 -22l-275 -952q-5 -16 -11.5 -22.5t-19.5 -6.5h-96q-25 0 -31 29l-180 692 l-20 96q-12 -57 -25 -98l-199 -690q-5 -17 -11 -23t-19 -6h-99q-14 0 -20.5 6.5t-9.5 22.5z" />
<glyph unicode="x" horiz-adv-x="950" d="M60 9.5q-5 9.5 3 21.5l328 483l-317 467q-9 12 -5 21.5t19 9.5h94q22 0 45 -31l254 -369l244 369q19 31 45 31h82q15 0 19 -9.5t-5 -21.5l-317 -471l330 -479q8 -12 3 -21.5t-20 -9.5h-92q-26 0 -45 31l-264 381l-254 -381q-19 -31 -45 -31h-82q-15 0 -20 9.5z" />
<glyph unicode="y" horiz-adv-x="884" d="M37 981q-4 13 3.5 22t22.5 9h84q25 0 35 -31l232 -680q7 -19 17 -61.5t11 -61.5q13 52 33 119l234 684q10 31 34 31h78q17 0 24.5 -8.5t2.5 -22.5l-469 -1374q-8 -31 -35 -31h-63q-15 0 -22 9t-3 22l123 385z" />
<glyph unicode="z" horiz-adv-x="929" d="M96 31v57q0 13 8 25l519 780h-469q-31 0 -31 31v59q0 29 31 29h614q31 0 31 -29v-57q0 -16 -6 -25l-523 -782h527q30 0 30 -31v-57q0 -31 -30 -31h-670q-31 0 -31 31z" />
<glyph unicode="{" horiz-adv-x="917" d="M115 479v60q0 30 30 30h2q119 0 170.5 41t51.5 117v459q0 264 381 264h14q29 0 29 -31v-59q0 -31 -29 -31h-14q-128 0 -182 -40.5t-54 -117.5v-458q0 -163 -166 -203q166 -43 166 -205v-473q0 -77 54 -117.5t182 -40.5h14q15 0 22 -6.5t7 -23.5v-60q0 -17 -7 -23.5 t-22 -6.5h-14q-381 0 -381 264v475q0 75 -51.5 115.5t-170.5 40.5h-2q-30 0 -30 30z" />
<glyph unicode="|" horiz-adv-x="516" d="M186 -401v1802q0 31 29 31h88q29 0 29 -31v-1802q0 -31 -29 -31h-88q-29 0 -29 31z" />
<glyph unicode="}" horiz-adv-x="917" d="M123 -356q0 30 31 30h12q129 0 182 40.5t53 117.5v473q0 162 168 205q-168 40 -168 203v458q0 77 -53 117.5t-182 40.5h-12q-31 0 -31 31v59q0 31 31 31h12q383 0 383 -264v-459q0 -77 51 -117.5t170 -40.5h2q15 0 22 -6.5t7 -23.5v-60q0 -17 -7 -23.5t-22 -6.5h-2 q-119 0 -170 -40.5t-51 -115.5v-475q0 -264 -383 -264h-12q-31 0 -31 30v60z" />
<glyph unicode="~" horiz-adv-x="995" d="M162 473l4 57q6 91 46 134t99 43q41 0 101 -29l176 -92q5 -2 20 -8.5t24.5 -10t21.5 -7t20 -3.5q33 0 41.5 18.5t13.5 79.5v17q5 26 33 26h45q17 0 22 -7t5 -27l-5 -56q-7 -94 -45.5 -135t-95.5 -41q-53 0 -113 31l-180 92q-45 25 -71 25q-33 0 -44 -19t-14 -76l-2 -18 q0 -27 -33 -27h-43q-26 0 -26 33z" />
<glyph unicode="&#xa1;" horiz-adv-x="520" d="M184 205v-563q0 -31 29 -31h90q29 0 29 31v563l-15 436q0 31 -28 31h-62q-28 0 -28 -31zM186 813v160q0 31 29 31h86q17 0 24 -7t7 -24v-160q0 -31 -31 -31h-86q-29 0 -29 31z" />
<glyph unicode="&#xa2;" horiz-adv-x="1083" d="M168 436v516q0 113 69 180t228 80v150q0 31 31 31h84q28 0 28 -31v-148q305 -21 305 -262v-39q0 -30 -30 -30h-76q-31 0 -31 30v31q0 76 -52 116t-181 40t-181.5 -40t-52.5 -116v-498q0 -77 52.5 -117t181.5 -40t181 40t52 117v46q0 17 7 23.5t24 6.5h76q17 0 23.5 -6.5 t6.5 -23.5v-56q0 -116 -71 -183.5t-234 -78.5v-143q0 -31 -28 -31h-84q-31 0 -31 31v143q-159 13 -228 80.5t-69 181.5z" />
<glyph unicode="&#xa3;" horiz-adv-x="1355" d="M170 31v61q0 29 29 29h120v516h-120q-29 0 -29 31v61q0 29 29 29h120v364q0 66 17.5 115t60.5 89.5t125 61.5t201 21q97 0 169 -14.5t116.5 -39t72 -62t37.5 -78.5t10 -93v-59q0 -31 -28 -31h-82q-29 0 -29 31v37q0 63 -21 101.5t-80.5 60.5t-164.5 22q-78 0 -129 -11.5 t-79 -36.5t-39 -57t-11 -79v-342h313q31 0 31 -29v-61q0 -31 -31 -31h-313v-516h412q82 0 127 49.5t45 175.5v12q0 33 28 33h78q31 0 31 -33v-12q0 -102 -20.5 -172t-59.5 -107t-85.5 -52t-109.5 -15h-712q-29 0 -29 31z" />
<glyph unicode="&#xa4;" horiz-adv-x="1134" d="M49 551v39q0 28 31 28h110v156h-110q-31 0 -31 31v37q0 30 31 30h110v238q0 299 433 299q432 0 432 -299v-104q0 -33 -29 -33h-82q-31 0 -31 33v81q0 95 -66.5 146t-221.5 51t-222 -51t-67 -146v-215h303q31 0 31 -30v-37q0 -31 -31 -31h-303v-156h303q31 0 31 -28v-39 q0 -31 -31 -31h-303v-215q0 -95 67 -145.5t222 -50.5t221.5 50.5t66.5 145.5v109q0 30 31 30h82q29 0 29 -30v-131q0 -299 -432 -299q-433 0 -433 299v237h-110q-31 0 -31 31z" />
<glyph unicode="&#xa5;" horiz-adv-x="1323" d="M173 1385q6 8 22 8h98q23 0 37 -31l301 -594q19 -39 31 -78q3 9 16 41.5t14 36.5l312 594q5 10 8.5 15.5t11 10.5t16.5 5h86q16 0 22 -8t-1 -23l-246 -473h139q17 0 24 -7t7 -24v-37q0 -17 -7 -23.5t-24 -6.5h-190l-80 -156h270q17 0 24 -7t7 -24v-37q0 -30 -31 -30h-305 v-506q0 -31 -30 -31h-87q-30 0 -30 31v506h-318q-32 0 -32 30v37q0 17 7.5 24t24.5 7h275l-80 156h-195q-18 0 -25 6.5t-7 23.5v37q0 17 7.5 24t24.5 7h146l-242 473q-7 15 -1 23z" />
<glyph unicode="&#xa6;" horiz-adv-x="466" d="M162 287q0 30 31 30h81q29 0 29 -30v-688q0 -31 -29 -31h-81q-31 0 -31 31v688zM162 674v688q0 31 31 31h81q29 0 29 -31v-688q0 -31 -29 -31h-81q-31 0 -31 31z" />
<glyph unicode="&#xa7;" horiz-adv-x="1124" d="M186 -145q0 17 7 23.5t22 6.5h74q17 0 23.5 -6.5t6.5 -23.5v-33q0 -75 55 -115.5t185 -40.5t185 40.5t55 117.5v166q0 28 -14 50t-40 36.5t-42 21t-39 13.5l-277 79q-69 22 -125.5 79.5t-56.5 146.5v207q0 17 6.5 23.5t21.5 6.5h76q15 0 22 -6.5t7 -23.5v-195 q0 -29 12.5 -52.5t33 -38.5t37 -23.5t34.5 -14.5l288 -84q31 -8 61 -22.5t63 -40t53 -66t20 -90.5v-162q0 -266 -379 -266q-201 0 -288 67.5t-87 192.5v27zM186 981v164q0 264 377 264q201 0 289 -67t88 -193v-25q0 -17 -7 -23.5t-24 -6.5h-73q-15 0 -22 6.5t-7 23.5v31 q0 76 -54.5 115t-185.5 39q-130 0 -185.5 -39.5t-55.5 -114.5v-166q0 -86 137 -121l274 -82q69 -22 126 -79t57 -146v-207q0 -30 -29 -30h-74q-29 0 -29 30v195q0 54 -37.5 86t-78.5 43l-289 86q-24 6 -47.5 15.5t-51.5 28t-49 41.5t-35 57.5t-14 74.5z" />
<glyph unicode="&#xa8;" horiz-adv-x="663" d="M160 1210v193q0 31 28 31h62q29 0 29 -31v-193q0 -30 -29 -30h-62q-28 0 -28 30zM383 1210v193q0 31 29 31h61q29 0 29 -31v-193q0 -30 -29 -30h-61q-29 0 -29 30z" />
<glyph unicode="&#xa9;" horiz-adv-x="1490" d="M186 350v692q0 62 11.5 111t47.5 99t96 82.5t162.5 53.5t241.5 21q116 0 207 -13.5t151 -40t101 -59t62.5 -76t30 -85.5t8.5 -93v-692q0 -51 -8.5 -93t-30 -85.5t-62.5 -75.5t-101 -58.5t-151 -40t-207 -13.5q-139 0 -241.5 20.5t-162.5 53.5t-96 82.5t-47.5 98.5 t-11.5 111zM293 334q0 -58 22 -102t72 -79.5t140 -54t218 -18.5q102 0 180.5 12.5t129.5 34.5t83.5 54.5t46 69.5t13.5 83v727q0 57 -22.5 101.5t-73 79.5t-140.5 54t-217 19q-128 0 -218 -19t-140 -54.5t-72 -80t-22 -102.5v-725zM451 520v350q0 62 13 106.5t44.5 79.5 t90.5 52.5t146 17.5q88 0 147 -17.5t91 -52.5t44.5 -79.5t12.5 -106.5v-30q0 -17 -6.5 -24t-21.5 -7h-68q-17 0 -24 7t-7 24v28q0 79 -34 117.5t-134 38.5q-99 0 -132 -38t-33 -118v-344q0 -81 32.5 -119t132.5 -38t134 38.5t34 118.5v43q0 33 31 33h68q28 0 28 -33v-47 q0 -62 -12.5 -106.5t-44.5 -79.5t-91 -52.5t-147 -17.5q-87 0 -146 17.5t-90.5 52.5t-44.5 79.5t-13 106.5z" />
<glyph unicode="&#xaa;" horiz-adv-x="720" d="M125 928v59q0 64 44 106t124 42h196v112q0 82 -122 82q-125 0 -125 -82v-16q0 -21 -21 -21h-61q-21 0 -21 21v20q0 158 230 158q227 0 227 -162v-434q0 -22 -21 -22h-57q-10 0 -13 3t-7 14q-1 1 -1.5 2.5t-0.5 2.5l-4 39q-87 -72 -195 -72q-86 0 -129 41t-43 107z M231 942q0 -80 95 -80q52 0 95.5 21t67.5 43v133h-176q-40 0 -61 -21.5t-21 -56.5v-39z" />
<glyph unicode="&#xab;" horiz-adv-x="1380" d="M162 455v96q0 18 26 33l506 284q31 12 31 -26v-84q0 -16 -7 -23t-24 -14l-418 -219l418 -219q16 -7 23.5 -14t7.5 -21v-84q0 -38 -31 -29l-506 285q-26 15 -26 35zM653 455v96q0 18 27 33l506 284q31 12 31 -26v-84q0 -16 -7 -23t-24 -14l-418 -219l418 -219 q16 -7 23.5 -14t7.5 -21v-84q0 -38 -31 -29l-506 285q-27 15 -27 35z" />
<glyph unicode="&#xac;" horiz-adv-x="784" d="M162 592q0 86 60.5 147.5t146.5 61.5t147.5 -61.5t61.5 -147.5t-61.5 -146.5t-147.5 -60.5t-146.5 60.5t-60.5 146.5z" />
<glyph unicode="&#xad;" horiz-adv-x="933" d="M162 563v60q0 28 31 28h548q31 0 31 -28v-60q0 -31 -31 -31h-548q-31 0 -31 31z" />
<glyph unicode="&#xae;" horiz-adv-x="1273" d="M186 760v366q0 283 453 283q114 0 199 -18.5t132 -46t75 -68t36.5 -75t8.5 -75.5v-366q0 -41 -8.5 -75.5t-36.5 -75t-75 -68t-132 -46t-199 -18.5q-453 0 -453 283zM285 752q0 -187 354 -187q352 0 352 185v385q0 184 -352 184q-354 0 -354 -184v-383zM438 686v502 q0 22 23 22h201q112 0 157 -43t45 -108v-47q0 -103 -98 -135l80 -191q3 -9 -3 -15.5t-18 -6.5h-59q-17 0 -23 22l-75 176h-6h-123v-176q0 -22 -21 -22h-59q-21 0 -21 22zM539 938h112q54 0 82.5 22.5t28.5 55.5v37q0 36 -28 58t-83 22h-112v-195z" />
<glyph unicode="&#xaf;" horiz-adv-x="851" d="M137 1288v53q0 31 31 31h516q29 0 29 -31v-53q0 -31 -29 -31h-516q-31 0 -31 31z" />
<glyph unicode="&#xb0;" horiz-adv-x="829" d="M131 1014v198q0 94 65 144.5t220 50.5q154 0 218 -50.5t64 -144.5v-198q0 -94 -64 -144.5t-218 -50.5q-155 0 -220 50.5t-65 144.5zM254 1020q0 -102 162 -102t162 102v188q0 101 -162 101t-162 -101v-188z" />
<glyph unicode="&#xb1;" horiz-adv-x="1185" d="M162 223v60q0 17 7 23.5t24 6.5h800q31 0 31 -30v-60q0 -30 -31 -30h-800q-17 0 -24 6.5t-7 23.5zM162 750v61q0 29 31 29h337v250q0 30 29 30h62q28 0 28 -30v-250h344q31 0 31 -29v-61q0 -31 -31 -31h-344v-252q0 -31 -28 -31h-62q-29 0 -29 31v252h-337q-17 0 -24 7 t-7 24z" />
<glyph unicode="&#xb2;" horiz-adv-x="765" d="M121 1153v72q0 184 258 184q262 0 262 -184v-127q0 -117 -111 -160l-217 -76q-67 -17 -67 -63v-146h379q11 0 15.5 -4t4.5 -16v-47q0 -23 -20 -23h-469q-21 0 -21 23v231q0 26 9 46t26 32.5t29 19t32 13.5l234 82q65 26 65 82v116q0 55 -34.5 84t-116.5 29 q-80 0 -114 -29t-34 -84v-55q0 -23 -22 -23h-66q-22 0 -22 23z" />
<glyph unicode="&#xb3;" horiz-adv-x="763" d="M121 737v29q0 11 4.5 15.5t17.5 4.5h66q22 0 22 -20v-14q0 -54 35.5 -81.5t116.5 -27.5q80 0 114.5 27.5t34.5 81.5v100q0 56 -32.5 82.5t-114.5 26.5h-104q-23 0 -23 20v45q0 23 23 23h94q84 0 115.5 25.5t31.5 80.5v59q0 54 -31.5 81.5t-109.5 27.5q-81 0 -113 -27.5 t-32 -81.5v-14q0 -20 -21 -20h-68q-20 0 -20 20v29q0 84 56.5 133t199.5 49q252 0 252 -180v-90q0 -54 -23 -86.5t-80 -46.5q63 -18 87 -53t24 -91v-129q0 -180 -260 -180q-262 0 -262 182z" />
<glyph unicode="&#xb4;" horiz-adv-x="677" d="M203 1192l135 229q18 29 41 29h88q17 0 21 -9.5t-5 -21.5l-161 -237q-14 -19 -37 -19h-68q-29 0 -14 29z" />
<glyph unicode="&#xb5;" horiz-adv-x="1071" d="M150 -391v1372q0 31 28 31h84q29 0 29 -31v-715q0 -155 182 -155q159 0 295 112v758q0 31 29 31h84q28 0 28 -31v-950q0 -17 -6.5 -24t-21.5 -7h-76q-17 0 -23 6.5t-8 24.5l-4 73q-140 -120 -336 -120q-89 0 -153 28l10 -403q3 -31 -29 -31h-84q-15 0 -21.5 7t-6.5 24z " />
<glyph unicode="&#xb6;" horiz-adv-x="1320" d="M186 846v278q0 62 18.5 108.5t62 84t123 57t192.5 19.5h209q28 0 28 -29v-1755q0 -31 -31 -31h-86q-17 0 -23.5 7t-6.5 24v969h-90q-113 0 -192.5 19.5t-123 56.5t-62 83.5t-18.5 108.5zM991 -391v1753q0 31 29 31h88q29 0 29 -31v-1753q0 -31 -29 -31h-88q-29 0 -29 31z " />
<glyph unicode="&#xb7;" horiz-adv-x="452" d="M154 463v160q0 30 30 30h86q29 0 29 -30v-160q0 -31 -29 -31h-86q-17 0 -23.5 7t-6.5 24z" />
<glyph unicode="&#xb8;" horiz-adv-x="378" d="M-6 -371q0 29 31 29h217q86 0 86 72q0 71 -86 71h-127q-27 0 -35.5 9.5t-3.5 29.5l45 170q11 30 35 27l39 -6q30 -3 20 -37l-29 -103h76q71 0 120.5 -39t49.5 -122t-49.5 -122.5t-120.5 -39.5h-237q-31 0 -31 31v30z" />
<glyph unicode="&#xb9;" horiz-adv-x="768" d="M121 590v45q0 13 5 17.5t19 4.5h185v639l-187 -39q-20 -6 -20 17v49q0 20 20 23l279 61q20 5 20 -18v-732h185q12 0 16 -4.5t4 -17.5v-45q0 -23 -20 -23h-482q-24 0 -24 23z" />
<glyph unicode="&#xba;" horiz-adv-x="733" d="M123 944v301q0 77 59.5 120.5t184.5 43.5q124 0 183.5 -43.5t59.5 -120.5v-301q0 -77 -59.5 -120.5t-183.5 -43.5q-125 0 -184.5 43.5t-59.5 120.5zM233 954q0 -86 134 -86q133 0 133 86v281q0 88 -133 88q-134 0 -134 -88v-281z" />
<glyph unicode="&#xbb;" horiz-adv-x="1376" d="M162 178v84q0 16 7 23t24 14l417 219l-417 219q-16 7 -23.5 14t-7.5 21v84q0 38 31 29l505 -285q27 -15 27 -35v-96q0 -18 -27 -33l-505 -284q-31 -12 -31 26zM649 178v84q0 16 7 23t24 14l418 219l-418 219q-16 7 -23.5 14t-7.5 21v84q0 38 31 29l506 -285 q26 -15 26 -35v-96q0 -18 -26 -33l-506 -284q-31 -12 -31 26z" />
<glyph unicode="&#xbc;" horiz-adv-x="1710" d="M121 590v45q0 13 5 17.5t19 4.5h185v639l-187 -39q-20 -6 -20 17v49q0 20 20 23l279 61q20 5 20 -18v-732h185q12 0 16 -4.5t4 -17.5v-45q0 -23 -20 -23h-482q-24 0 -24 23zM635 -78l401 1551q6 20 29 20h72q21 0 14 -20l-401 -1551q-3 -22 -25 -22h-72q-24 0 -18 22z M1061 276v50q0 8 4 12l164 475q7 23 26 23h70q24 0 16 -23l-161 -467h297v467q0 23 22 23h70q22 0 22 -23v-790q0 -23 -22 -23h-70q-22 0 -22 23v233h-392q-24 0 -24 20z" />
<glyph unicode="&#xbd;" horiz-adv-x="1742" d="M121 590v45q0 13 5 17.5t19 4.5h185v639l-187 -39q-20 -6 -20 17v49q0 20 20 23l279 61q20 5 20 -18v-732h185q12 0 16 -4.5t4 -17.5v-45q0 -23 -20 -23h-482q-24 0 -24 23zM621 -78l403 1551q3 20 27 20h71q11 0 15 -5.5t0 -14.5l-402 -1551q-3 -22 -24 -22h-72 q-21 0 -18 22zM1098 590v72q0 184 258 184q262 0 262 -184v-127q0 -117 -111 -160l-217 -76q-67 -17 -67 -63v-146h379q11 0 15.5 -4t4.5 -16v-47q0 -23 -20 -23h-469q-21 0 -21 23v231q0 26 9 46t26 32.5t29 19t32 13.5l234 81q65 26 65 82v117q0 55 -34.5 84t-116.5 29 q-80 0 -114 -29t-34 -84v-55q0 -23 -22 -23h-66q-22 0 -22 23z" />
<glyph unicode="&#xbe;" horiz-adv-x="1714" d="M121 735v29q0 11 4.5 15.5t17.5 4.5h66q22 0 22 -20v-14q0 -54 35.5 -81.5t116.5 -27.5q80 0 114.5 27.5t34.5 81.5v100q0 55 -32 81.5t-115 26.5h-104q-23 0 -23 21v45q0 23 23 23h94q84 0 115.5 25.5t31.5 80.5v59q0 54 -31.5 81.5t-109.5 27.5q-81 0 -113 -27.5 t-32 -81.5v-14q0 -20 -21 -20h-68q-20 0 -20 20v29q0 84 56.5 133t199.5 49q252 0 252 -180v-90q0 -54 -23 -86.5t-80 -46.5q63 -18 87 -53t24 -91v-129q0 -180 -260 -180q-262 0 -262 182zM641 -78l403 1551q3 20 27 20h72q21 0 14 -20l-401 -1551q-3 -22 -25 -22h-72 q-21 0 -18 22zM1065 276v50q0 8 4 12l162 475q7 23 29 23h69q11 0 15.5 -6.5t1.5 -16.5l-162 -467h297v467q0 23 22 23h68q13 0 17.5 -5t4.5 -18v-790q0 -13 -4.5 -18t-17.5 -5h-68q-22 0 -22 23v233h-391q-25 0 -25 20z" />
<glyph unicode="&#xbf;" horiz-adv-x="1161" d="M152 57v-155q4 -299 428 -299q426 0 426 299v116q0 33 -31 33h-82q-29 0 -29 -33v-94q0 -97 -64.5 -147.5t-219.5 -50.5q-154 0 -218.5 50.5t-64.5 147.5v137q0 102 102 158l144 74q25 13 43 25t42 35t37 58t13 78v160q0 31 -29 31h-88q-29 0 -29 -31v-127 q0 -95 -102 -145l-108 -53q-170 -84 -170 -267zM532 821v160q0 31 29 31h88q29 0 29 -31v-160q0 -30 -29 -30h-88q-29 0 -29 30z" />
<glyph unicode="&#xc0;" horiz-adv-x="1077" d="M49 31l408 1331q9 31 39 31h88q28 0 37 -31l409 -1331q9 -31 -24 -31h-88q-28 0 -37 31l-113 364h-469l-111 -364q-6 -31 -34 -31h-82q-16 0 -22.5 8t-0.5 23zM307 1801q4 9 21 9h88q27 0 41 -28l135 -230q14 -28 -14 -28h-66q-26 0 -39 18l-162 238q-8 12 -4 21z M334 512h403l-149 479q-10 35 -29 125t-22 127q-25 -145 -52 -248z" />
<glyph unicode="&#xc1;" horiz-adv-x="1077" d="M49 31l408 1331q9 31 39 31h88q28 0 37 -31l409 -1331q9 -31 -24 -31h-88q-28 0 -37 31l-113 364h-469l-111 -364q-6 -31 -34 -31h-82q-16 0 -22.5 8t-0.5 23zM334 512h403l-149 479q-10 35 -29 125t-22 127q-25 -145 -52 -248zM473 1552l135 230q18 28 41 28h88 q17 0 21.5 -9t-4.5 -21l-162 -238q-14 -18 -37 -18h-68q-28 0 -14 28z" />
<glyph unicode="&#xc2;" horiz-adv-x="1077" d="M49 31l408 1331q9 31 39 31h88q28 0 37 -31l409 -1331q9 -31 -24 -31h-88q-28 0 -37 31l-113 364h-469l-111 -364q-6 -31 -34 -31h-82q-16 0 -22.5 8t-0.5 23zM302 1531q-5 9 3 21l158 228q26 30 47 30h53q26 0 47 -28l160 -230q8 -12 3.5 -21t-19.5 -9h-66q-24 0 -43 30 l-108 166l-107 -166q-17 -30 -43 -30h-63q-17 0 -22 9zM334 512h403l-149 479q-10 35 -29 125t-22 127q-25 -145 -52 -248z" />
<glyph unicode="&#xc3;" horiz-adv-x="1077" d="M49 31l408 1331q9 31 39 31h88q28 0 37 -31l409 -1331q9 -31 -24 -31h-88q-28 0 -37 31l-113 364h-469l-111 -364q-6 -31 -34 -31h-82q-16 0 -22.5 8t-0.5 23zM244 1565l4 51q3 86 42.5 126t104.5 40q58 0 113 -39l90 -66q4 -3 19.5 -12t22 -13t17.5 -8t19 -4 q32 0 41.5 19.5t11.5 79.5v16q0 27 33 27h45q30 0 27 -33l-3 -51q-3 -86 -43.5 -126t-105.5 -40q-56 0 -111 37l-92 65q-51 37 -76 37q-34 0 -43.5 -19t-11.5 -77v-16q0 -29 -31 -29h-47q-26 0 -26 35zM334 512h403l-149 479q-10 35 -29 125t-22 127q-25 -145 -52 -248z" />
<glyph unicode="&#xc4;" horiz-adv-x="1077" d="M49 31l408 1331q9 31 39 31h88q28 0 37 -31l409 -1331q9 -31 -24 -31h-88q-28 0 -37 31l-113 364h-469l-111 -364q-6 -31 -34 -31h-82q-16 0 -22.5 8t-0.5 23zM334 512h403l-149 479q-10 35 -29 125t-22 127q-25 -145 -52 -248zM365 1579v193q0 30 28 30h62q28 0 28 -30 v-193q0 -31 -28 -31h-62q-28 0 -28 31zM588 1579v193q0 30 28 30h62q29 0 29 -30v-193q0 -31 -29 -31h-62q-28 0 -28 31z" />
<glyph unicode="&#xc5;" horiz-adv-x="1077" d="M49 31l408 1331q9 31 39 31h88q28 0 37 -31l409 -1331q9 -31 -24 -31h-88q-28 0 -37 31l-113 364h-469l-111 -364q-6 -31 -34 -31h-82q-16 0 -22.5 8t-0.5 23zM334 512h403l-149 479q-10 35 -29 125t-22 127q-25 -145 -52 -248zM346 1602v63q0 66 47.5 106.5t141.5 40.5 q95 0 142.5 -40t47.5 -107v-63q0 -66 -47 -105t-143 -39q-95 0 -142 39t-47 105zM428 1616q0 -84 107 -84q106 0 106 84v37q0 82 -106 82q-107 0 -107 -82v-37z" />
<glyph unicode="&#xc6;" horiz-adv-x="1718" d="M50.5 8q-7.5 8 0.5 23l776 1331q21 31 43 31h689q30 0 30 -29v-61q0 -31 -30 -31h-584v-484h547q17 0 23.5 -6.5t6.5 -21.5v-58q0 -17 -6.5 -23.5t-23.5 -6.5h-547v-551h608q31 0 31 -29v-61q0 -31 -31 -31h-711q-18 0 -26 6.5t-8 24.5v364h-437l-208 -364 q-19 -31 -37 -31h-82q-16 0 -23.5 8zM471 512h367v641q-46 -86 -70 -125z" />
<glyph unicode="&#xc7;" horiz-adv-x="1130" d="M162 283v827q0 299 432 299t432 -299v-104q0 -33 -29 -33h-82q-17 0 -23.5 7.5t-6.5 25.5v81q0 95 -67 146t-222 51t-222 -51t-67 -146v-782q0 -95 67 -145.5t222 -50.5t222 50.5t67 145.5v109q0 30 30 30h82q29 0 29 -30v-131q0 -299 -432 -299h-8l-25 -93h76 q71 0 120.5 -39t49.5 -122t-49.5 -122.5t-120.5 -39.5h-238q-30 0 -30 31v30q0 29 30 29h217q86 0 86 72q0 71 -86 71h-127q-27 0 -35 9.5t-3 29.5l38 150q-327 32 -327 293z" />
<glyph unicode="&#xc8;" d="M186 31v1331q0 31 29 31h698q31 0 31 -31v-64q0 -30 -31 -30h-583v-477h547q17 0 23.5 -7t6.5 -24v-60q0 -17 -6.5 -23.5t-23.5 -6.5h-547v-545h608q31 0 31 -29v-65q0 -31 -31 -31h-725q-27 0 -27 31zM350 1801q4 9 21 9h88q27 0 41 -28l135 -230q14 -28 -14 -28h-66 q-25 0 -39 18l-162 238q-8 12 -4 21z" />
<glyph unicode="&#xc9;" d="M186 31v1331q0 31 29 31h698q31 0 31 -31v-64q0 -30 -31 -30h-583v-477h547q17 0 23.5 -7t6.5 -24v-60q0 -17 -6.5 -23.5t-23.5 -6.5h-547v-545h608q31 0 31 -29v-65q0 -31 -31 -31h-725q-27 0 -27 31zM473 1552l135 230q18 28 41 28h88q17 0 21.5 -9t-4.5 -21l-162 -238 q-14 -18 -37 -18h-68q-28 0 -14 28z" />
<glyph unicode="&#xca;" d="M186 31v1331q0 31 29 31h698q31 0 31 -31v-64q0 -30 -31 -30h-583v-477h547q17 0 23.5 -7t6.5 -24v-60q0 -17 -6.5 -23.5t-23.5 -6.5h-547v-545h608q31 0 31 -29v-65q0 -31 -31 -31h-725q-27 0 -27 31zM314 1531q-5 9 3 21l158 228q26 30 47 30h53q27 0 48 -28l159 -230 q8 -12 3.5 -21t-19.5 -9h-66q-24 0 -43 30l-108 166l-107 -166q-17 -30 -43 -30h-63q-17 0 -22 9z" />
<glyph unicode="&#xcb;" d="M186 31v1331q0 31 29 31h698q31 0 31 -31v-64q0 -30 -31 -30h-583v-477h547q17 0 23.5 -7t6.5 -24v-60q0 -17 -6.5 -23.5t-23.5 -6.5h-547v-545h608q31 0 31 -29v-65q0 -31 -31 -31h-725q-27 0 -27 31zM383 1579v193q0 30 29 30h61q29 0 29 -30v-193q0 -31 -29 -31h-61 q-29 0 -29 31zM606 1579v193q0 30 29 30h61q29 0 29 -30v-193q0 -31 -29 -31h-61q-29 0 -29 31z" />
<glyph unicode="&#xcc;" horiz-adv-x="491" d="M6 1801q4 9 21 9h88q27 0 41 -28l135 -230q14 -28 -15 -28h-65q-25 0 -39 18l-162 238q-8 12 -4 21zM166 31v1331q0 31 29 31h86q16 0 22 -7.5t6 -23.5v-1331q0 -16 -6 -23.5t-22 -7.5h-86q-29 0 -29 31z" />
<glyph unicode="&#xcd;" horiz-adv-x="493" d="M186 31v1331q0 31 29 31h86q29 0 29 -31v-1331q0 -31 -29 -31h-86q-29 0 -29 31zM201 1552l135 230q17 28 41 28h88q17 0 21 -9t-5 -21l-162 -238q-14 -18 -36 -18h-68q-28 0 -14 28z" />
<glyph unicode="&#xce;" horiz-adv-x="468" d="M1 1531q-5 9 3 21l158 228q26 30 47 30h53q26 0 47 -28l160 -230q8 -12 3.5 -21t-19.5 -9h-66q-24 0 -43 30l-108 166l-107 -166q-17 -30 -43 -30h-63q-17 0 -22 9zM164 31v1331q0 31 29 31h86q16 0 22 -7.5t6 -23.5v-1331q0 -16 -6 -23.5t-22 -7.5h-86q-29 0 -29 31z " />
<glyph unicode="&#xcf;" horiz-adv-x="495" d="M78 1579v193q0 30 28 30h62q29 0 29 -30v-193q0 -31 -29 -31h-62q-28 0 -28 31zM176 31v1331q0 31 29 31h86q16 0 22 -7.5t6 -23.5v-1331q0 -16 -6 -23.5t-22 -7.5h-86q-29 0 -29 31zM301 1579v193q0 30 29 30h61q29 0 29 -30v-193q0 -31 -29 -31h-61q-29 0 -29 31z" />
<glyph unicode="&#xd0;" horiz-adv-x="1232" d="M20 678v53q0 17 6.5 23t24.5 6h146v602q0 31 26 31h414q123 0 211.5 -23t138 -65.5t72 -94t22.5 -116.5v-795q0 -65 -22.5 -116.5t-72 -94t-138 -65.5t-211.5 -23h-416q-24 3 -24 31v616h-146q-17 0 -24 7t-7 24zM340 125h297q299 0 299 197v749q0 197 -299 197h-297 v-508h260q31 0 31 -29v-53q0 -31 -31 -31h-260v-522z" />
<glyph unicode="&#xd1;" horiz-adv-x="1255" d="M184 31v1331q0 31 31 31h78q17 0 24 -13l555 -977l62 -122v1081q0 31 29 31h77q29 0 29 -31v-1331q0 -31 -29 -31h-77q-23 0 -29 14l-543 963q-28 41 -69 135v-1081q0 -31 -29 -31h-78q-31 0 -31 31zM330 1565l4 51q3 86 42.5 126t104.5 40q58 0 113 -39l90 -66 q4 -3 19.5 -12t22 -13t17.5 -8t19 -4q32 0 41.5 19.5t11.5 79.5v16q0 27 33 27h45q30 0 27 -33l-2 -51q-3 -86 -44 -126t-106 -40q-56 0 -111 37l-92 65q-51 37 -76 37q-34 0 -43.5 -19t-11.5 -77v-16q0 -29 -31 -29h-47q-26 0 -26 35z" />
<glyph unicode="&#xd2;" horiz-adv-x="1210" d="M162 283v827q0 65 22.5 116.5t72 94t137.5 65.5t210 23q123 0 212 -23t138.5 -65.5t72 -94t22.5 -116.5v-827q0 -65 -22.5 -116.5t-72 -94t-138.5 -65.5t-212 -23q-122 0 -210 23t-137.5 65.5t-72 94t-22.5 116.5zM307 305q0 -196 297 -196q299 0 299 196v782 q0 197 -299 197q-297 0 -297 -197v-782zM385 1801q4 9 21 9h88q27 0 41 -28l135 -230q14 -28 -15 -28h-65q-26 0 -39 18l-162 238q-8 12 -4 21z" />
<glyph unicode="&#xd3;" horiz-adv-x="1210" d="M162 283v827q0 65 22.5 116.5t72 94t137.5 65.5t210 23q123 0 212 -23t138.5 -65.5t72 -94t22.5 -116.5v-827q0 -65 -22.5 -116.5t-72 -94t-138.5 -65.5t-212 -23q-122 0 -210 23t-137.5 65.5t-72 94t-22.5 116.5zM307 305q0 -196 297 -196q299 0 299 196v782 q0 197 -299 197q-297 0 -297 -197v-782zM508 1552l135 230q17 28 41 28h88q17 0 21 -9t-5 -21l-161 -238q-13 -18 -37 -18h-68q-28 0 -14 28z" />
<glyph unicode="&#xd4;" horiz-adv-x="1210" d="M162 283v827q0 65 22.5 116.5t72 94t137.5 65.5t210 23q123 0 212 -23t138.5 -65.5t72 -94t22.5 -116.5v-827q0 -65 -22.5 -116.5t-72 -94t-138.5 -65.5t-212 -23q-122 0 -210 23t-137.5 65.5t-72 94t-22.5 116.5zM307 305q0 -196 297 -196q299 0 299 196v782 q0 197 -299 197q-297 0 -297 -197v-782zM367.5 1531q-4.5 9 3.5 21l157 228q26 30 47 30h54q26 0 47 -28l160 -230q8 -12 3 -21t-20 -9h-65q-24 0 -43 30l-109 166l-106 -166q-17 -30 -43 -30h-64q-17 0 -21.5 9z" />
<glyph unicode="&#xd5;" horiz-adv-x="1210" d="M162 283v827q0 65 22.5 116.5t72 94t137.5 65.5t210 23q123 0 212 -23t138.5 -65.5t72 -94t22.5 -116.5v-827q0 -65 -22.5 -116.5t-72 -94t-138.5 -65.5t-212 -23q-122 0 -210 23t-137.5 65.5t-72 94t-22.5 116.5zM307 305q0 -196 297 -196q299 0 299 196v782 q0 197 -299 197q-297 0 -297 -197v-782zM307 1565l4 51q3 86 43 126t105 40q57 0 112 -39l91 -66q5 -3 19.5 -12t21.5 -13t17.5 -8t18.5 -4q33 0 42.5 20t11.5 79v16q0 27 32 27h45q30 0 27 -33l-2 -51q-3 -86 -44 -126t-106 -40q-55 0 -110 37l-92 65q-51 37 -76 37 q-34 0 -43.5 -19t-11.5 -77v-16q0 -29 -31 -29h-47q-27 0 -27 35z" />
<glyph unicode="&#xd6;" horiz-adv-x="1210" d="M162 283v827q0 65 22.5 116.5t72 94t137.5 65.5t210 23q123 0 212 -23t138.5 -65.5t72 -94t22.5 -116.5v-827q0 -65 -22.5 -116.5t-72 -94t-138.5 -65.5t-212 -23q-122 0 -210 23t-137.5 65.5t-72 94t-22.5 116.5zM307 305q0 -196 297 -196q299 0 299 196v782 q0 197 -299 197q-297 0 -297 -197v-782zM432 1579v193q0 30 29 30h61q29 0 29 -30v-193q0 -31 -29 -31h-61q-29 0 -29 31zM655 1579v193q0 30 29 30h61q29 0 29 -30v-193q0 -31 -29 -31h-61q-29 0 -29 31z" />
<glyph unicode="&#xd7;" horiz-adv-x="1114" d="M170 506q-16 24 10 41l295 168l-172 297q-15 27 10 41l52 30q29 13 41 -12l172 -295l296 170q28 18 39 -10l31 -51q16 -29 -12 -43l-295 -172l170 -293q16 -30 -12 -41l-52 -31q-23 -15 -38 12l-170 293l-295 -170q-28 -14 -43 13z" />
<glyph unicode="&#xd8;" horiz-adv-x="1210" d="M166 283v827q0 65 22.5 116.5t72 94t137.5 65.5t210 23q158 0 266 -41l23 47q8 15 13 22.5t16 15t26 7.5h54q19 0 22 -15t-6 -30l-51 -106q82 -76 82 -199v-827q0 -65 -22.5 -116.5t-72 -94t-138.5 -65.5t-212 -23q-164 0 -264 41l-22 -45q-11 -19 -16.5 -26.5t-16 -13.5 t-25.5 -6h-51q-18 0 -22 13.5t6 32.5l49 102q-80 74 -80 201zM311 305q0 -30 11 -67l491 1007q-73 39 -205 39q-297 0 -297 -197v-782zM403 145q68 -36 205 -36q299 0 299 196v782q0 35 -12 70z" />
<glyph unicode="&#xd9;" horiz-adv-x="1232" d="M174 283v1079q0 31 29 31h88q28 0 28 -31v-1057q0 -196 295 -196q301 0 301 196v1057q0 31 29 31h86q29 0 29 -31v-1079q0 -65 -22.5 -116.5t-72 -94t-138.5 -65.5t-212 -23q-122 0 -210 23t-137 65.5t-71 94t-22 116.5zM397 1801q4 9 21 9h88q27 0 41 -28l135 -230 q14 -28 -14 -28h-66q-26 0 -39 18l-162 238q-8 12 -4 21z" />
<glyph unicode="&#xda;" horiz-adv-x="1232" d="M174 283v1079q0 31 29 31h88q28 0 28 -31v-1057q0 -196 295 -196q301 0 301 196v1057q0 31 29 31h86q29 0 29 -31v-1079q0 -65 -22.5 -116.5t-72 -94t-138.5 -65.5t-212 -23q-122 0 -210 23t-137 65.5t-71 94t-22 116.5zM549 1552l135 230q18 28 41 28h88q17 0 21 -9 t-5 -21l-161 -238q-14 -18 -37 -18h-68q-28 0 -14 28z" />
<glyph unicode="&#xdb;" horiz-adv-x="1232" d="M174 283v1079q0 31 29 31h88q28 0 28 -31v-1057q0 -196 295 -196q301 0 301 196v1057q0 31 29 31h86q29 0 29 -31v-1079q0 -65 -22.5 -116.5t-72 -94t-138.5 -65.5t-212 -23q-122 0 -210 23t-137 65.5t-71 94t-22 116.5zM377.5 1531q-4.5 9 3.5 21l158 228q26 30 47 30 h53q26 0 47 -28l160 -230q8 -12 3 -21t-20 -9h-65q-24 0 -43 30l-109 166l-106 -166q-17 -30 -43 -30h-64q-17 0 -21.5 9z" />
<glyph unicode="&#xdc;" horiz-adv-x="1232" d="M174 283v1079q0 31 29 31h88q28 0 28 -31v-1057q0 -196 295 -196q301 0 301 196v1057q0 31 29 31h86q29 0 29 -31v-1079q0 -65 -22.5 -116.5t-72 -94t-138.5 -65.5t-212 -23q-122 0 -210 23t-137 65.5t-71 94t-22 116.5zM442 1579v193q0 30 29 30h61q29 0 29 -30v-193 q0 -31 -29 -31h-61q-29 0 -29 31zM666 1579v193q0 30 28 30h62q28 0 28 -30v-193q0 -31 -28 -31h-62q-28 0 -28 31z" />
<glyph unicode="&#xdd;" horiz-adv-x="1058" d="M41.5 1385q5.5 8 21.5 8h99q23 0 37 -31l301 -594q17 -34 30 -78q3 9 16.5 41.5t14.5 36.5l311 594q16 31 37 31h86q16 0 22 -8t-1 -23l-412 -795v-536q0 -31 -31 -31h-86q-30 0 -30 31v520l-414 811q-7 15 -1.5 23zM461 1552l135 230q18 28 41 28h88q17 0 21 -9t-5 -21 l-161 -238q-14 -18 -37 -18h-68q-28 0 -14 28z" />
<glyph unicode="&#xde;" horiz-adv-x="1159" d="M186 31v1331q0 31 29 31h86q29 0 29 -31v-350h288q123 0 212 -23t138.5 -65.5t72 -94t22.5 -116.5v-209q0 -65 -22.5 -116.5t-72 -94t-138.5 -65.5t-212 -23h-288v-174q0 -31 -29 -31h-86q-29 0 -29 31zM330 330h288q300 0 300 198v160q0 199 -300 199h-288v-557z" />
<glyph unicode="&#xdf;" horiz-adv-x="1234" d="M57 922v49q0 27 29 30l111 7h16v178q0 264 399 264q398 0 398 -264v-76q0 -39 -15 -70.5t-41.5 -52.5t-48.5 -32.5t-51 -22.5l-129 -41q-1 0 -11 -3t-13 -4t-13.5 -5t-15 -6t-13.5 -7t-13.5 -9t-10.5 -10.5t-9 -13t-5.5 -15t-2.5 -17.5v-10q0 -72 111 -115l244 -94 q188 -80 188 -207v-131q0 -60 -16 -105t-53.5 -81.5t-106 -55t-166.5 -18.5q-79 0 -137 12t-94 33t-58 54t-30 70t-8 87v20q0 33 28 33h60q28 0 28 -33v-24q0 -76 45.5 -115t165.5 -39q119 0 165 39.5t46 114.5v114q0 23 -11 42.5t-23 31t-34 23t-31.5 15t-27.5 9.5l-233 92 q-172 63 -172 209v33q0 38 15 69.5t40.5 51.5t48.5 31.5t49 19.5l113 35q115 32 115 118v46q0 161 -261 161q-262 0 -262 -161v-1145q0 -31 -30 -31h-82q-31 0 -31 31v860h-127q-29 0 -29 31z" />
<glyph unicode="&#xe0;" horiz-adv-x="1034" d="M127 225v103q0 105 69 173t197 68h352v185q0 76 -51.5 116.5t-179.5 40.5q-129 0 -181 -39t-52 -114v-25q0 -33 -31 -33h-74q-29 0 -29 33v35q0 260 369 260q200 0 284.5 -68t84.5 -192v-737q0 -31 -29 -31h-74q-16 0 -21.5 7t-8.5 24l-4 73q-151 -120 -338 -120 q-137 0 -210 68t-73 173zM264 244q0 -142 178 -142q157 0 303 115v240h-325q-156 0 -156 -148v-65zM324 1440.5q4 9.5 20 9.5h88q26 0 41 -29l135 -229q14 -29 -14 -29h-66q-25 0 -39 19l-161 237q-8 12 -4 21.5z" />
<glyph unicode="&#xe1;" horiz-adv-x="1034" d="M127 225v103q0 105 69 173t197 68h352v185q0 76 -51.5 116.5t-179.5 40.5q-129 0 -181 -39t-52 -114v-25q0 -33 -31 -33h-74q-29 0 -29 33v35q0 260 369 260q200 0 284.5 -68t84.5 -192v-737q0 -31 -29 -31h-74q-16 0 -21.5 7t-8.5 24l-4 73q-151 -120 -338 -120 q-137 0 -210 68t-73 173zM264 244q0 -142 178 -142q157 0 303 115v240h-325q-156 0 -156 -148v-65zM422 1192l135 229q18 29 41 29h88q17 0 21 -9.5t-5 -21.5l-161 -237q-14 -19 -37 -19h-68q-28 0 -14 29z" />
<glyph unicode="&#xe2;" horiz-adv-x="1034" d="M127 225v103q0 105 69 173t197 68h352v185q0 76 -51.5 116.5t-179.5 40.5q-129 0 -181 -39t-52 -114v-25q0 -33 -31 -33h-74q-29 0 -29 33v35q0 260 369 260q200 0 284.5 -68t84.5 -192v-737q0 -31 -29 -31h-74q-16 0 -21.5 7t-8.5 24l-4 73q-151 -120 -338 -120 q-137 0 -210 68t-73 173zM264 244q0 -142 178 -142q157 0 303 115v240h-325q-156 0 -156 -148v-65zM279.5 1170.5q-4.5 9.5 3.5 21.5l157 227q27 31 47 31h54q25 0 47 -29l160 -229q8 -12 3 -21.5t-20 -9.5h-65q-24 0 -43 31l-109 166l-106 -166q-18 -31 -43 -31h-64 q-17 0 -21.5 9.5z" />
<glyph unicode="&#xe3;" horiz-adv-x="1034" d="M127 225v103q0 105 69 173t197 68h352v185q0 76 -51.5 116.5t-179.5 40.5q-129 0 -181 -39t-52 -114v-25q0 -33 -31 -33h-74q-29 0 -29 33v35q0 260 369 260q200 0 284.5 -68t84.5 -192v-737q0 -31 -29 -31h-74q-16 0 -21.5 7t-8.5 24l-4 73q-151 -120 -338 -120 q-137 0 -210 68t-73 173zM223 1210l4 52q3 86 43 125.5t105 39.5q59 0 112 -38l91 -66q5 -3 19.5 -12t21.5 -13t17.5 -8t18.5 -4q33 0 42.5 19.5t11.5 78.5v17q0 26 32 26h45q30 0 27 -32l-2 -52q-3 -86 -43.5 -125.5t-105.5 -39.5q-58 0 -111 36l-92 66q-51 37 -76 37 q-34 0 -43.5 -19t-11.5 -77v-17q0 -16 -7.5 -22t-23.5 -6h-47q-27 0 -27 34zM264 244q0 -142 178 -142q157 0 303 115v240h-325q-156 0 -156 -148v-65z" />
<glyph unicode="&#xe4;" horiz-adv-x="1034" d="M127 225v103q0 105 69 173t197 68h352v185q0 76 -51.5 116.5t-179.5 40.5q-129 0 -181 -39t-52 -114v-25q0 -33 -31 -33h-74q-29 0 -29 33v35q0 260 369 260q200 0 284.5 -68t84.5 -192v-737q0 -31 -29 -31h-74q-16 0 -21.5 7t-8.5 24l-4 73q-151 -120 -338 -120 q-137 0 -210 68t-73 173zM264 244q0 -142 178 -142q157 0 303 115v240h-325q-156 0 -156 -148v-65zM344 1210v193q0 31 29 31h61q29 0 29 -31v-193q0 -30 -29 -30h-61q-29 0 -29 30zM567 1210v193q0 31 29 31h61q29 0 29 -31v-193q0 -30 -29 -30h-61q-29 0 -29 30z" />
<glyph unicode="&#xe5;" horiz-adv-x="1034" d="M127 225v103q0 105 69 173t197 68h352v185q0 76 -51.5 116.5t-179.5 40.5q-129 0 -181 -39t-52 -114v-25q0 -33 -31 -33h-74q-29 0 -29 33v35q0 260 369 260q200 0 284.5 -68t84.5 -192v-737q0 -31 -29 -31h-74q-16 0 -21.5 7t-8.5 24l-4 73q-151 -120 -338 -120 q-137 0 -210 68t-73 173zM264 244q0 -142 178 -142q157 0 303 115v240h-325q-156 0 -156 -148v-65zM330 1272v63q0 67 47 107.5t141 40.5q95 0 143 -40.5t48 -107.5v-63q0 -66 -47.5 -105t-143.5 -39q-94 0 -141 39t-47 105zM412 1286q0 -84 106 -84q107 0 107 84v37 q0 82 -107 82q-106 0 -106 -82v-37z" />
<glyph unicode="&#xe6;" horiz-adv-x="1613" d="M125 225v86q0 105 71 173.5t197 68.5h350v209q0 77 -51 118.5t-180 41.5t-181 -40t-52 -118v-31q0 -31 -29 -31h-74q-17 0 -24 7t-7 24v35q0 125 86 192.5t285 67.5q219 0 295 -106q96 106 309 106q200 0 286.5 -68.5t86.5 -195.5v-246q0 -29 -29 -29h-581v-243 q0 -75 53.5 -114.5t183.5 -39.5t185 42t55 118v37q0 30 29 30h71q29 0 29 -30v-43q0 -126 -84.5 -194t-284.5 -68q-280 0 -352 137q-169 -137 -358 -137q-141 0 -213 67.5t-72 173.5zM264 242q0 -67 46 -106.5t132 -39.5q51 0 99.5 13.5t91 39t61.5 39.5t49 39v226h-327 q-75 0 -113.5 -41t-38.5 -107v-63zM883 590h477v170q0 76 -55 118t-185 42q-129 0 -183 -42t-54 -118v-170z" />
<glyph unicode="&#xe7;" horiz-adv-x="980" d="M139 248v516q0 127 86.5 195.5t286.5 68.5t286.5 -68.5t86.5 -195.5v-39q0 -31 -31 -31h-76q-30 0 -30 31v31q0 76 -52.5 115.5t-181.5 39.5t-181 -39.5t-52 -115.5v-498q0 -78 52 -118t181 -40t181.5 40t52.5 118v45q0 17 6.5 24t23.5 7h76q17 0 24 -7t7 -24v-55 q0 -123 -81.5 -191.5t-268.5 -72.5l-25 -93h76q71 0 120.5 -39t49.5 -122t-49.5 -122.5t-120.5 -39.5h-238q-31 0 -31 31v30q0 29 31 29h217q86 0 86 72q0 71 -86 71h-127q-27 0 -35.5 9.5t-3.5 29.5l39 148q-161 11 -230 78t-69 182z" />
<glyph unicode="&#xe8;" horiz-adv-x="1007" d="M139 248v516q0 127 87.5 195.5t289.5 68.5q200 0 285.5 -68.5t85.5 -195.5v-252q0 -29 -29 -29h-579v-227q0 -77 52 -117.5t185 -40.5t185.5 40.5t52.5 117.5v35q0 28 28 28h74q31 0 31 -28v-43q0 -127 -86.5 -195.5t-288.5 -68.5q-200 0 -286.5 68.5t-86.5 195.5z M279 592h475v164q0 157 -238 157q-130 0 -183.5 -41t-53.5 -116v-164zM305 1440.5q4 9.5 21 9.5h88q26 0 41 -29l135 -229q14 -29 -15 -29h-65q-25 0 -39 19l-162 237q-8 12 -4 21.5z" />
<glyph unicode="&#xe9;" horiz-adv-x="1007" d="M139 248v516q0 127 87.5 195.5t289.5 68.5q200 0 285.5 -68.5t85.5 -195.5v-252q0 -29 -29 -29h-579v-227q0 -77 52 -117.5t185 -40.5t185.5 40.5t52.5 117.5v35q0 28 28 28h74q31 0 31 -28v-43q0 -127 -86.5 -195.5t-288.5 -68.5q-200 0 -286.5 68.5t-86.5 195.5z M279 592h475v164q0 157 -238 157q-130 0 -183.5 -41t-53.5 -116v-164zM424 1192l135 229q18 29 41 29h88q17 0 21.5 -9.5t-4.5 -21.5l-162 -237q-14 -19 -37 -19h-68q-28 0 -14 29z" />
<glyph unicode="&#xea;" horiz-adv-x="1007" d="M139 248v516q0 127 87.5 195.5t289.5 68.5q200 0 285.5 -68.5t85.5 -195.5v-252q0 -29 -29 -29h-579v-227q0 -77 52 -117.5t185 -40.5t185.5 40.5t52.5 117.5v35q0 28 28 28h74q31 0 31 -28v-43q0 -127 -86.5 -195.5t-288.5 -68.5q-200 0 -286.5 68.5t-86.5 195.5z M277.5 1170.5q-4.5 9.5 3.5 21.5l157 227q27 31 47 31h54q25 0 47 -29l159 -229q8 -12 3.5 -21.5t-19.5 -9.5h-65q-24 0 -43 31l-109 166l-106 -166q-18 -31 -44 -31h-63q-17 0 -21.5 9.5zM279 592h475v164q0 157 -238 157q-130 0 -183.5 -41t-53.5 -116v-164z" />
<glyph unicode="&#xeb;" horiz-adv-x="1007" d="M139 248v516q0 127 87.5 195.5t289.5 68.5q200 0 285.5 -68.5t85.5 -195.5v-252q0 -29 -29 -29h-579v-227q0 -77 52 -117.5t185 -40.5t185.5 40.5t52.5 117.5v35q0 28 28 28h74q31 0 31 -28v-43q0 -127 -86.5 -195.5t-288.5 -68.5q-200 0 -286.5 68.5t-86.5 195.5z M279 592h475v164q0 157 -238 157q-130 0 -183.5 -41t-53.5 -116v-164zM340 1210v193q0 31 29 31h61q29 0 29 -31v-193q0 -30 -29 -30h-61q-29 0 -29 30zM563 1210v193q0 31 29 31h61q29 0 29 -31v-193q0 -30 -29 -30h-61q-29 0 -29 30z" />
<glyph unicode="&#xec;" horiz-adv-x="442" d="M-10 1440.5q4 9.5 20 9.5h88q26 0 41 -29l135 -229q14 -29 -14 -29h-65q-25 0 -39 19l-162 237q-8 12 -4 21.5zM141 31v950q0 31 31 31h82q29 0 29 -31v-950q0 -31 -29 -31h-82q-31 0 -31 31z" />
<glyph unicode="&#xed;" horiz-adv-x="446" d="M162 31v950q0 31 31 31h81q29 0 29 -31v-950q0 -31 -29 -31h-81q-31 0 -31 31zM178 1192l135 229q18 29 41 29h88q17 0 21.5 -9.5t-4.5 -21.5l-162 -237q-14 -19 -37 -19h-67q-29 0 -15 29z" />
<glyph unicode="&#xee;" horiz-adv-x="425" d="M-19.5 1170.5q-4.5 9.5 3.5 21.5l157 227q27 31 47 31h54q25 0 47 -29l160 -229q8 -12 3 -21.5t-20 -9.5h-65q-24 0 -43 31l-109 166l-106 -166q-18 -31 -43 -31h-64q-17 0 -21.5 9.5zM143 31v950q0 31 31 31h82q29 0 29 -31v-950q0 -31 -29 -31h-82q-31 0 -31 31z" />
<glyph unicode="&#xef;" horiz-adv-x="444" d="M53 1210v193q0 31 29 31h61q29 0 29 -31v-193q0 -30 -29 -30h-61q-29 0 -29 30zM152 31v950q0 31 30 31h82q29 0 29 -31v-950q0 -31 -29 -31h-82q-30 0 -30 31zM276 1210v193q0 31 29 31h62q28 0 28 -31v-193q0 -30 -28 -30h-62q-29 0 -29 30z" />
<glyph unicode="&#xf0;" horiz-adv-x="1136" d="M139 248v518q0 122 71 192t214 70q182 0 346 -121v252q0 34 -16 66l-150 -64q-24 -15 -41 10l-8 19q-14 25 12 41l152 65q-56 50 -191 50h-182q-17 0 -24 6.5t-7 23.5v43q0 17 7 24t24 7h182q220 0 308 -88l104 49q29 14 41 -10l12 -21q13 -26 -16 -39l-94 -47 q20 -44 20 -108v-938q0 -264 -379 -264q-385 0 -385 264zM281 258q0 -158 243 -158q246 0 246 158v526q-149 117 -309 117q-93 0 -136.5 -43t-43.5 -113v-487z" />
<glyph unicode="&#xf1;" horiz-adv-x="1085" d="M162 31v950q0 31 31 31h73q16 0 22.5 -7.5t8.5 -23.5l4 -78q57 49 145.5 87t204.5 38q138 0 210.5 -69.5t72.5 -182.5v-745q0 -31 -29 -31h-82q-30 0 -30 31v714q0 156 -181 156q-163 0 -309 -115v-755q0 -31 -29 -31h-81q-31 0 -31 31zM240 1217l4 51q3 86 42.5 126 t104.5 40q58 0 113 -39l90 -66q4 -3 19.5 -12t22 -13t17.5 -8t19 -4q32 0 41.5 19.5t11.5 79.5v16q0 27 33 27h45q29 0 26 -33l-2 -51q-3 -86 -43.5 -126t-105.5 -40q-56 0 -111 37l-92 65q-51 37 -76 37q-34 0 -43.5 -19t-11.5 -77v-17q0 -16 -7.5 -22t-23.5 -6h-47 q-26 0 -26 35z" />
<glyph unicode="&#xf2;" horiz-adv-x="1050" d="M139 248v516q0 264 385 264q387 0 387 -264v-516q0 -264 -387 -264q-385 0 -385 264zM281 258q0 -158 243 -158q246 0 246 158v496q0 76 -57.5 116.5t-188.5 40.5q-129 0 -186 -40.5t-57 -116.5v-496zM311 1440.5q4 9.5 21 9.5h88q26 0 41 -29l135 -229q14 -29 -14 -29 h-66q-25 0 -39 19l-162 237q-8 12 -4 21.5z" />
<glyph unicode="&#xf3;" horiz-adv-x="1050" d="M139 248v516q0 264 385 264q387 0 387 -264v-516q0 -264 -387 -264q-385 0 -385 264zM281 258q0 -158 243 -158q246 0 246 158v496q0 76 -57.5 116.5t-188.5 40.5q-129 0 -186 -40.5t-57 -116.5v-496zM451 1192l135 229q18 29 41 29h88q17 0 21 -9.5t-5 -21.5l-162 -237 q-14 -19 -37 -19h-67q-29 0 -14 29z" />
<glyph unicode="&#xf4;" horiz-adv-x="1050" d="M139 248v516q0 264 385 264q387 0 387 -264v-516q0 -264 -387 -264q-385 0 -385 264zM281 258q0 -158 243 -158q246 0 246 158v496q0 76 -57.5 116.5t-188.5 40.5q-129 0 -186 -40.5t-57 -116.5v-496zM289.5 1170.5q-4.5 9.5 3.5 21.5l158 227q27 31 47 31h53 q25 0 47 -29l160 -229q8 -12 3 -21.5t-20 -9.5h-65q-24 0 -43 31l-109 166l-106 -166q-18 -31 -43 -31h-64q-17 0 -21.5 9.5z" />
<glyph unicode="&#xf5;" horiz-adv-x="1050" d="M139 248v516q0 264 385 264q387 0 387 -264v-516q0 -264 -387 -264q-385 0 -385 264zM229 1210l4 52q3 86 43 125.5t105 39.5q60 0 113 -38l90 -66q4 -3 19.5 -12t22 -13t17.5 -8t19 -4q33 0 42 19t11 79v17q0 26 33 26h45q29 0 26 -32l-2 -52q-3 -86 -43.5 -125.5 t-105.5 -39.5q-58 0 -111 36l-92 66q-51 37 -76 37q-34 0 -43.5 -19t-11.5 -77v-17q0 -16 -7.5 -22t-23.5 -6h-47q-27 0 -27 34zM281 258q0 -158 243 -158q246 0 246 158v496q0 76 -57.5 116.5t-188.5 40.5q-129 0 -186 -40.5t-57 -116.5v-496z" />
<glyph unicode="&#xf6;" horiz-adv-x="1050" d="M139 248v516q0 264 385 264q387 0 387 -264v-516q0 -264 -387 -264q-385 0 -385 264zM281 258q0 -158 243 -158q246 0 246 158v496q0 76 -57.5 116.5t-188.5 40.5q-129 0 -186 -40.5t-57 -116.5v-496zM354 1210v193q0 31 29 31h61q29 0 29 -31v-193q0 -30 -29 -30h-61 q-29 0 -29 30zM578 1210v193q0 31 28 31h62q28 0 28 -31v-193q0 -30 -28 -30h-62q-28 0 -28 30z" />
<glyph unicode="&#xf7;" horiz-adv-x="1204" d="M162 625v61q0 17 6.5 23t21.5 6h822q30 0 30 -29v-61q0 -31 -30 -31h-819q-17 0 -24 7t-7 24zM528 233v160q0 31 31 31h86q29 0 29 -31v-160q0 -17 -7 -23.5t-22 -6.5h-86q-17 0 -24 6.5t-7 23.5zM528 920v159q0 31 31 31h86q29 0 29 -31v-159q0 -31 -29 -31h-86 q-17 0 -24 7t-7 24z" />
<glyph unicode="&#xf8;" horiz-adv-x="1050" d="M139 248v516q0 264 385 264q120 0 209 -29l23 41q23 45 55 45h51q21 0 24 -14t-9 -31l-50 -90q84 -64 84 -186v-516q0 -264 -387 -264q-125 0 -211 28l-18 -35q-13 -26 -24.5 -35.5t-34.5 -9.5h-48q-13 0 -17.5 7.5t-2.5 17.5t8 20l45 82q-82 68 -82 189zM281 258 q0 -43 12 -65l381 696q-58 22 -150 22q-129 0 -186 -40.5t-57 -116.5v-496zM375 121q55 -21 149 -21q246 0 246 158v496q0 39 -14 67z" />
<glyph unicode="&#xf9;" d="M150 233v748q0 31 28 31h84q29 0 29 -31v-715q0 -155 182 -155q159 0 295 112v758q0 31 29 31h84q28 0 28 -31v-950q0 -17 -6.5 -24t-21.5 -7h-76q-17 0 -23 6.5t-8 24.5l-4 73q-140 -120 -336 -120q-138 0 -211 68t-73 181zM320 1440.5q4 9.5 20 9.5h88q26 0 41 -29 l135 -229q14 -29 -14 -29h-66q-25 0 -39 19l-161 237q-8 12 -4 21.5z" />
<glyph unicode="&#xfa;" d="M150 233v748q0 31 28 31h84q29 0 29 -31v-715q0 -155 182 -155q159 0 295 112v758q0 31 29 31h84q28 0 28 -31v-950q0 -17 -6.5 -24t-21.5 -7h-76q-17 0 -23 6.5t-8 24.5l-4 73q-140 -120 -336 -120q-138 0 -211 68t-73 181zM463 1192l135 229q18 29 41 29h88 q17 0 21 -9.5t-5 -21.5l-161 -237q-14 -19 -37 -19h-68q-29 0 -14 29z" />
<glyph unicode="&#xfb;" d="M150 233v748q0 31 28 31h84q29 0 29 -31v-715q0 -155 182 -155q159 0 295 112v758q0 31 29 31h84q28 0 28 -31v-950q0 -17 -6.5 -24t-21.5 -7h-76q-17 0 -23 6.5t-8 24.5l-4 73q-140 -120 -336 -120q-138 0 -211 68t-73 181zM289.5 1170.5q-4.5 9.5 3.5 21.5l158 227 q27 31 47 31h53q25 0 47 -29l160 -229q8 -12 3 -21.5t-20 -9.5h-65q-24 0 -43 31l-109 166l-106 -166q-18 -31 -43 -31h-64q-17 0 -21.5 9.5z" />
<glyph unicode="&#xfc;" d="M150 233v748q0 31 28 31h84q29 0 29 -31v-715q0 -155 182 -155q159 0 295 112v758q0 31 29 31h84q28 0 28 -31v-950q0 -17 -6.5 -24t-21.5 -7h-76q-17 0 -23 6.5t-8 24.5l-4 73q-140 -120 -336 -120q-138 0 -211 68t-73 181zM362 1210v193q0 31 29 31h62q28 0 28 -31 v-193q0 -30 -28 -30h-62q-29 0 -29 30zM586 1210v193q0 31 28 31h62q29 0 29 -31v-193q0 -30 -29 -30h-62q-28 0 -28 30z" />
<glyph unicode="&#xfd;" horiz-adv-x="884" d="M37 981q-4 13 3.5 22t22.5 9h84q25 0 35 -31l232 -680q7 -19 17 -61.5t11 -61.5q13 52 33 119l234 684q10 31 34 31h78q17 0 24.5 -8.5t2.5 -22.5l-469 -1374q-8 -31 -35 -31h-63q-15 0 -22 9t-3 22l123 385zM381 1192l135 229q18 29 41 29h88q17 0 21.5 -9.5t-4.5 -21.5 l-162 -237q-14 -19 -37 -19h-68q-29 0 -14 29z" />
<glyph unicode="&#xfe;" d="M162 -393v1794q0 31 31 31h81q29 0 29 -31v-494q159 121 348 121q142 0 212.5 -70t70.5 -192v-520q0 -122 -70.5 -192t-212.5 -70q-193 0 -348 118v-495q0 -29 -29 -29h-81q-31 0 -31 29zM303 225q153 -114 309 -114q94 0 137.5 42.5t43.5 112.5v479q0 70 -43.5 113 t-137.5 43q-160 0 -309 -117v-559z" />
<glyph unicode="&#xff;" horiz-adv-x="884" d="M37 981q-4 13 3.5 22t22.5 9h84q25 0 35 -31l232 -680q7 -19 17 -61.5t11 -61.5q13 52 33 119l234 684q10 31 34 31h78q17 0 24.5 -8.5t2.5 -22.5l-469 -1374q-8 -31 -35 -31h-63q-15 0 -22 9t-3 22l123 385zM276 1210v193q0 31 29 31h62q28 0 28 -31v-193q0 -30 -28 -30 h-62q-29 0 -29 30zM500 1210v193q0 31 28 31h62q28 0 28 -31v-193q0 -30 -28 -30h-62q-28 0 -28 30z" />
<glyph unicode="&#x152;" horiz-adv-x="1789" d="M162 283v827q0 65 22 116.5t71.5 94t137.5 65.5t211 23q187 0 299 -80v33q0 31 29 31h700q29 0 29 -29v-64q0 -28 -29 -28h-583v-484h546q16 0 23.5 -6t7.5 -22v-60q0 -28 -31 -28h-546v-551h608q16 0 22.5 -6t6.5 -23v-61q0 -31 -29 -31h-725q-29 0 -29 31v32 q-106 -79 -299 -79q-123 0 -211 23t-137.5 65.5t-71.5 94t-22 116.5zM307 305q0 -201 297 -201q292 0 299 191v801q-7 192 -299 192q-297 0 -297 -201v-782z" />
<glyph unicode="&#x153;" horiz-adv-x="1638" d="M139 246v518q0 264 385 264q226 0 307 -94q88 94 316 94q200 0 285.5 -68.5t85.5 -195.5v-246q0 -29 -27 -29h-582v-237q0 -77 54 -118.5t184 -41.5q129 0 183 42t54 118v37q0 30 31 30h70q28 0 28 -30v-43q0 -126 -83 -194t-283 -68q-227 0 -316 92q-82 -92 -307 -92 q-385 0 -385 262zM281 256q0 -158 243 -158q246 0 246 158v500q0 157 -246 157q-243 0 -243 -157v-500zM909 590h475v170q0 76 -54 118t-183 42q-130 0 -184 -41.5t-54 -118.5v-170z" />
<glyph unicode="&#x178;" horiz-adv-x="1058" d="M41.5 1385q5.5 8 21.5 8h99q23 0 37 -31l301 -594q17 -34 30 -78q3 9 16.5 41.5t14.5 36.5l311 594q16 31 37 31h86q16 0 22 -8t-1 -23l-412 -795v-536q0 -31 -31 -31h-86q-30 0 -30 31v520l-414 811q-7 15 -1.5 23zM356 1538v193q0 30 29 30h61q29 0 29 -30v-193 q0 -31 -29 -31h-61q-29 0 -29 31zM580 1538v193q0 30 28 30h62q28 0 28 -30v-193q0 -31 -28 -31h-62q-28 0 -28 31z" />
<glyph unicode="&#x2c6;" horiz-adv-x="710" d="M117.5 1170.5q-4.5 9.5 3.5 21.5l158 227q27 31 47 31h53q25 0 47 -29l160 -229q8 -12 3 -21.5t-20 -9.5h-65q-24 0 -43 31l-109 166l-106 -166q-18 -31 -43 -31h-64q-17 0 -21.5 9.5z" />
<glyph unicode="&#x2dc;" horiz-adv-x="864" d="M135 1210l4 52q3 86 43 125.5t105 39.5q59 0 112 -38l90 -66q4 -3 19.5 -12t22 -13t17.5 -8t19 -4q33 0 42.5 19.5t11.5 78.5v17q0 26 32 26h45q30 0 27 -32l-2 -52q-3 -86 -44 -125.5t-106 -39.5q-57 0 -110 36l-92 66q-51 37 -76 37q-34 0 -43.5 -19t-11.5 -77v-17 q0 -16 -7.5 -22t-23.5 -6h-47q-27 0 -27 34z" />
<glyph unicode="&#x2000;" horiz-adv-x="906" />
<glyph unicode="&#x2001;" horiz-adv-x="1812" />
<glyph unicode="&#x2002;" horiz-adv-x="906" />
<glyph unicode="&#x2003;" horiz-adv-x="1812" />
<glyph unicode="&#x2004;" horiz-adv-x="604" />
<glyph unicode="&#x2005;" horiz-adv-x="453" />
<glyph unicode="&#x2006;" horiz-adv-x="302" />
<glyph unicode="&#x2007;" horiz-adv-x="302" />
<glyph unicode="&#x2008;" horiz-adv-x="226" />
<glyph unicode="&#x2009;" horiz-adv-x="362" />
<glyph unicode="&#x200a;" horiz-adv-x="100" />
<glyph unicode="&#x2010;" horiz-adv-x="933" d="M162 563v60q0 28 31 28h548q31 0 31 -28v-60q0 -31 -31 -31h-548q-31 0 -31 31z" />
<glyph unicode="&#x2011;" horiz-adv-x="933" d="M162 563v60q0 28 31 28h548q31 0 31 -28v-60q0 -31 -31 -31h-548q-31 0 -31 31z" />
<glyph unicode="&#x2012;" horiz-adv-x="933" d="M162 563v60q0 28 31 28h548q31 0 31 -28v-60q0 -31 -31 -31h-548q-31 0 -31 31z" />
<glyph unicode="&#x2013;" horiz-adv-x="1118" d="M162 563v60q0 28 31 28h733q30 0 30 -28v-60q0 -31 -30 -31h-733q-31 0 -31 31z" />
<glyph unicode="&#x2014;" horiz-adv-x="1751" d="M162 563v60q0 28 31 28h1366q30 0 30 -28v-60q0 -31 -30 -31h-1366q-31 0 -31 31z" />
<glyph unicode="&#x2018;" horiz-adv-x="555" d="M154 1112v131q0 187 204 250q29 6 39 -18l21 -60q12 -29 -19 -39q-57 -25 -79.5 -57.5t-22.5 -81.5v-125q0 -31 -29 -31h-86q-28 0 -28 31z" />
<glyph unicode="&#x2019;" horiz-adv-x="552" d="M135 1159q-12 29 19 39q57 25 79.5 57.5t22.5 81.5v125q0 31 29 31h86q28 0 28 -31v-131q0 -187 -204 -250q-29 -6 -39 19z" />
<glyph unicode="&#x201a;" horiz-adv-x="552" d="M135 -113q-12 29 19 39q57 25 79.5 58t22.5 82v124q0 31 29 31h86q28 0 28 -31v-131q0 -186 -204 -249q-29 -6 -39 18z" />
<glyph unicode="&#x201c;" horiz-adv-x="876" d="M154 1112v131q0 187 204 250q29 6 39 -18l21 -60q12 -29 -19 -39q-57 -25 -79.5 -57.5t-22.5 -81.5v-125q0 -31 -29 -31h-86q-28 0 -28 31zM477 1112v131q0 187 205 250q29 6 39 -18l20 -60q12 -29 -18 -39q-57 -25 -79.5 -57.5t-22.5 -81.5v-125q0 -31 -29 -31h-86 q-29 0 -29 31z" />
<glyph unicode="&#x201d;" horiz-adv-x="876" d="M135 1159q-12 29 19 39q57 25 79.5 57.5t22.5 81.5v125q0 31 29 31h86q28 0 28 -31v-131q0 -187 -204 -250q-29 -6 -39 19zM457 1159q-12 29 18 39q57 26 80 58t23 81v125q0 31 28 31h86q29 0 29 -31v-131q0 -187 -205 -250q-29 -6 -39 19z" />
<glyph unicode="&#x201e;" horiz-adv-x="876" d="M135 -113q-12 29 19 39q57 25 79.5 58t22.5 82v124q0 31 29 31h86q28 0 28 -31v-131q0 -186 -204 -249q-29 -6 -39 18zM457 -113q-12 29 18 39q57 26 80 58.5t23 81.5v124q0 31 28 31h86q29 0 29 -31v-131q0 -186 -205 -249q-29 -6 -39 18z" />
<glyph unicode="&#x2022;" horiz-adv-x="514" d="M186 406v264q0 17 7 23.5t22 6.5h86q15 0 22 -6.5t7 -23.5v-264q0 -31 -29 -31h-86q-29 0 -29 31z" />
<glyph unicode="&#x2026;" horiz-adv-x="1466" d="M154 31v159q0 31 30 31h86q29 0 29 -31v-159q0 -31 -29 -31h-86q-17 0 -23.5 7t-6.5 24zM662 31v159q0 31 30 31h86q29 0 29 -31v-159q0 -31 -29 -31h-86q-17 0 -23.5 7t-6.5 24zM1167 31v159q0 31 31 31h86q29 0 29 -31v-159q0 -31 -29 -31h-86q-17 0 -24 7t-7 24z" />
<glyph unicode="&#x202f;" horiz-adv-x="362" />
<glyph unicode="&#x2039;" horiz-adv-x="886" d="M162 455v96q0 18 26 33l506 284q31 12 31 -26v-84q0 -16 -7 -23t-24 -14l-418 -219l418 -219q16 -7 23.5 -14t7.5 -21v-84q0 -38 -31 -29l-506 285q-26 15 -26 35z" />
<glyph unicode="&#x203a;" horiz-adv-x="886" d="M162 164v84q0 14 7.5 21t23.5 14l417 219l-417 219q-17 7 -24 14t-7 23v84q0 38 31 26l505 -284q27 -15 27 -33v-96q0 -20 -27 -35l-505 -285q-31 -9 -31 29z" />
<glyph unicode="&#x205f;" horiz-adv-x="453" />
<glyph unicode="&#x20ac;" horiz-adv-x="1327" d="M170 551v39q0 28 29 28h110v156h-110q-29 0 -29 31v37q0 17 7 23.5t22 6.5h110v238q0 299 432 299q433 0 433 -299v-104q0 -33 -29 -33h-82q-31 0 -31 33v81q0 95 -67 146t-222 51t-221.5 -51t-66.5 -146v-215h305q15 0 21.5 -6.5t6.5 -23.5v-37q0 -17 -6.5 -24t-21.5 -7 h-305v-156h305q28 0 28 -28v-39q0 -17 -6.5 -24t-21.5 -7h-305v-215q0 -95 66.5 -145.5t221.5 -50.5t222 50.5t67 145.5v109q0 30 31 30h82q29 0 29 -30v-131q0 -299 -433 -299q-432 0 -432 299v237h-110q-29 0 -29 31z" />
<glyph unicode="&#x2122;" horiz-adv-x="1830" d="M184 1315v53q0 25 27 25h555q27 0 27 -25v-53q0 -25 -27 -25h-217v-708q0 -25 -23 -25h-75q-25 0 -25 25v708h-215q-27 0 -27 25zM891 582v786q0 25 22 25h68q17 0 23 -13l241 -506q12 -24 23 -57q1 2 6 15t9 24t7 16l240 508q3 13 22 13h70q25 0 25 -25v-786 q0 -25 -25 -25h-70q-24 0 -24 25v577q-5 -25 -19 -53l-182 -397q-11 -25 -33 -25h-53q-22 0 -33 25l-186 401q-6 11 -18 55v-583q0 -25 -23 -25h-68q-22 0 -22 25z" />
<glyph unicode="&#x25fc;" horiz-adv-x="1013" d="M0 0v1014h1014v-1014h-1014z" />
</font>
</defs>
</svg>
